<svg xmlns="http://www.w3.org/2000/svg" xmlns:xlink="http://www.w3.org/1999/xlink" viewBox="0 0 107.7 107.7">
<g>
	<defs>
		<rect id="SVGID_1_" width="107.7" height="107.7"/>
	</defs>
	<clipPath id="SVGID_2_">
		<use xlink:href="#SVGID_1_"  overflow="visible"/>
	</clipPath>
	<path clip-path="url(#SVGID_2_)" fill="#F47C20" d="M53.9,0C24.1,0,0,24.1,0,53.9s24.1,53.9,53.9,53.9c29.7,0,53.9-24.1,53.9-53.9
		S83.6,0,53.9,0 M84.4,31.9L49.5,88c-1.2,1.9-3.3,3.2-5.6,3.3c-0.1,0-0.2,0-0.3,0c-2.2,0-4.2-1-5.6-2.8L20.1,64.9
		c-2.3-3.1-1.7-7.4,1.4-9.8c3.1-2.3,7.4-1.7,9.8,1.3L43,72l29.6-47.5c2-3.3,6.3-4.3,9.6-2.2C85.4,24.3,86.4,28.6,84.4,31.9"/>
</g>
</svg>
