<?xml version="1.0" encoding="utf-8"?>
<!-- Generator: Adobe Illustrator 16.0.0, SVG Export Plug-In . SVG Version: 6.00 Build 0)  -->
<!DOCTYPE svg PUBLIC "-//W3C//DTD SVG 1.1//EN" "http://www.w3.org/Graphics/SVG/1.1/DTD/svg11.dtd">
<svg version="1.1" id="Layer_1" xmlns="http://www.w3.org/2000/svg" xmlns:xlink="http://www.w3.org/1999/xlink" x="0px" y="0px"
	 width="697.962px" height="350.049px" viewBox="0 0 697.962 350.049" enable-background="new 0 0 697.962 350.049"
	 xml:space="preserve">
<g>
	<defs>
		<rect id="SVGID_1_" width="697.962" height="350.049"/>
	</defs>
	<clipPath id="SVGID_2_">
		<use xlink:href="#SVGID_1_"  overflow="visible"/>
	</clipPath>
	<path clip-path="url(#SVGID_2_)" fill="#999998" d="M74.78,339.184h4.598v0.335c0,1.61,0.577,3.017,1.732,4.218
		c1.224,1.279,2.711,1.903,4.456,1.903c1.654,0,3.066-0.53,4.228-1.595c1.167-1.054,1.742-2.416,1.742-4.08
		c0-1.881-0.589-3.307-1.771-4.264c-1.186-0.971-2.784-1.741-4.808-2.318c-3.056-0.943-5.113-1.949-6.198-2.984
		c-1.838-1.634-2.766-3.801-2.766-6.505c0-2.742,0.955-5.024,2.878-6.828c1.915-1.816,4.253-2.724,6.999-2.724
		c2.541,0,4.744,0.914,6.633,2.745c1.877,1.827,2.81,3.985,2.81,6.487h-4.63c0-1.466-0.501-2.645-1.482-3.51
		c-1.005-0.867-2.276-1.307-3.822-1.307c-1.329,0-2.462,0.457-3.376,1.38c-0.914,0.911-1.371,2.036-1.371,3.347
		c0,0.888,0.154,1.646,0.46,2.298c0.323,0.652,0.809,1.198,1.487,1.642c0.666,0.436,1.279,0.77,1.806,0.99
		c0.549,0.221,1.29,0.484,2.25,0.786c1.46,0.478,2.694,0.942,3.68,1.407c0.99,0.474,1.988,1.08,2.957,1.834
		c0.975,0.756,1.711,1.699,2.185,2.823c0.479,1.129,0.705,2.444,0.705,3.935c0,3.198-1.026,5.816-3.097,7.826
		c-2.073,2.017-4.711,3.023-7.93,3.023c-2.897,0-5.401-1.074-7.496-3.247c-1.926-2.01-2.891-4.327-2.891-6.964
		C74.748,339.63,74.757,339.404,74.78,339.184"/>
	<path clip-path="url(#SVGID_2_)" fill="#999998" d="M155.81,314.342c4.74,0,8.88,1.745,12.426,5.237
		c3.532,3.502,5.304,7.621,5.304,12.37c0,4.933-1.73,9.17-5.178,12.735c-3.464,3.587-7.654,5.364-12.552,5.364
		c-4.873,0-9.081-1.719-12.624-5.171c-3.532-3.456-5.304-7.621-5.304-12.491c0-4.998,1.735-9.261,5.223-12.774
		C146.565,316.098,150.813,314.342,155.81,314.342 M155.81,318.758c-3.742,0-6.896,1.338-9.459,4.005
		c-2.555,2.667-3.834,5.872-3.834,9.624c0,3.662,1.3,6.786,3.904,9.372c2.599,2.586,5.727,3.881,9.389,3.881
		c3.738,0,6.851-1.341,9.355-4.005c2.493-2.671,3.74-5.887,3.74-9.686c0-3.739-1.325-6.887-3.993-9.459
		C162.293,319.999,159.252,318.758,155.81,318.758"/>
	<rect x="217.513" y="303.129" clip-path="url(#SVGID_2_)" fill="#999998" width="4.627" height="46.104"/>
	<path clip-path="url(#SVGID_2_)" fill="#999998" d="M297.53,315.098v34.137h-4.387v-5.276h-0.124
		c-1.992,4.06-5.713,6.091-11.186,6.091c-4.527,0-8.518-2.035-11.969-6.119c-1.627-1.709-2.438-5.3-2.438-10.788v-18.044h4.633
		v18.064c0,3.379,0.494,5.886,1.479,7.531c1.916,3.304,4.891,4.946,8.935,4.946c3.492,0,6.282-1.394,8.357-4.177
		c1.377-1.915,2.073-4.676,2.073-8.301v-18.064H297.53z"/>
	<polygon clip-path="url(#SVGID_2_)" fill="#999998" points="346.735,349.234 346.735,319.277 339.646,319.277 339.646,315.098 
		346.735,315.098 346.735,303.129 351.372,303.129 351.372,315.098 359.299,315.098 359.299,319.277 351.372,319.277 
		351.372,349.234 	"/>
	<path clip-path="url(#SVGID_2_)" fill="#999998" d="M401.407,303.129h4.627v7.861h-4.627V303.129z M401.407,315.098h4.627v34.137
		h-4.627V315.098z"/>
	<path clip-path="url(#SVGID_2_)" fill="#999998" d="M467.925,314.342c4.742,0,8.889,1.745,12.421,5.237
		c3.553,3.502,5.325,7.621,5.325,12.37c0,4.933-1.728,9.17-5.205,12.735c-3.454,3.587-7.629,5.364-12.541,5.364
		c-4.875,0-9.076-1.719-12.605-5.171c-3.537-3.456-5.314-7.621-5.314-12.491c0-4.998,1.738-9.261,5.207-12.774
		C458.695,316.098,462.933,314.342,467.925,314.342 M467.925,318.758c-3.735,0-6.88,1.338-9.441,4.005
		c-2.555,2.667-3.846,5.872-3.846,9.624c0,3.662,1.295,6.786,3.9,9.372c2.613,2.586,5.729,3.881,9.387,3.881
		c3.74,0,6.861-1.341,9.354-4.005c2.504-2.671,3.76-5.887,3.76-9.686c0-3.739-1.33-6.887-4.004-9.459
		C474.417,319.999,471.391,318.758,467.925,318.758"/>
	<path clip-path="url(#SVGID_2_)" fill="#999998" d="M529.637,349.234v-34.137h4.36v4.916h0.123
		c2.579-3.766,6.078-5.652,10.518-5.672c4.932,0,8.957,1.9,12.118,5.695c2.074,2.619,3.104,6.364,3.104,11.217v17.98h-4.634v-17.998
		c0-3.54-0.664-6.239-1.997-8.116c-2.085-2.901-5.015-4.362-8.814-4.362c-1.63,0-3.197,0.375-4.705,1.114
		c-1.512,0.749-2.735,1.769-3.646,3.065c-0.55,0.717-0.956,1.531-1.213,2.474c-0.268,0.933-0.435,1.775-0.488,2.514
		c-0.074,0.743-0.104,1.657-0.104,2.758v0.554v17.998H529.637z"/>
	<path clip-path="url(#SVGID_2_)" fill="#999998" d="M602.372,339.184h4.598v0.335c0,1.61,0.578,3.017,1.74,4.218
		c1.218,1.279,2.7,1.903,4.441,1.903c1.659,0,3.077-0.53,4.234-1.595c1.167-1.054,1.74-2.416,1.74-4.08
		c0-1.881-0.594-3.307-1.772-4.264c-1.189-0.971-2.783-1.741-4.809-2.318c-3.05-0.943-5.106-1.949-6.197-2.984
		c-1.836-1.634-2.761-3.801-2.761-6.505c0-2.742,0.955-5.024,2.871-6.828c1.916-1.816,4.256-2.724,7.005-2.724
		c2.535,0,4.741,0.914,6.624,2.745c1.881,1.827,2.815,3.985,2.815,6.487h-4.633c0-1.466-0.497-2.645-1.481-3.51
		c-1-0.867-2.271-1.307-3.816-1.307c-1.334,0-2.47,0.457-3.379,1.38c-0.917,0.911-1.373,2.036-1.373,3.347
		c0,0.888,0.154,1.646,0.464,2.298c0.329,0.652,0.812,1.198,1.489,1.642c0.665,0.436,1.275,0.77,1.802,0.99
		c0.545,0.221,1.29,0.484,2.251,0.786c1.465,0.478,2.688,0.942,3.675,1.407c1.006,0.474,1.994,1.08,2.966,1.834
		c0.978,0.756,1.711,1.699,2.187,2.823c0.471,1.129,0.712,2.444,0.712,3.935c0,3.198-1.038,5.816-3.112,7.826
		c-2.065,2.017-4.717,3.023-7.926,3.023c-2.897,0-5.402-1.074-7.5-3.247c-1.931-2.01-2.889-4.327-2.889-6.964
		C602.338,339.63,602.349,339.404,602.372,339.184"/>
</g>
<g>
	<defs>
		<path id="SVGID_3_" d="M302.429,45.511l0.886,5.999c2.45-0.362,4.937-0.607,7.485-0.607c19.223,0,35.99,10.613,44.823,26.268
			l5.247-2.96c-9.866-17.476-28.607-29.314-50.07-29.314C307.958,44.897,305.163,45.11,302.429,45.511"/>
	</defs>
	<clipPath id="SVGID_4_">
		<use xlink:href="#SVGID_3_"  overflow="visible"/>
	</clipPath>
	
		<linearGradient id="SVGID_5_" gradientUnits="userSpaceOnUse" x1="4.882813e-004" y1="350.0488" x2="1.0005" y2="350.0488" gradientTransform="matrix(58.4414 0 0 -58.4414 302.4375 20518.3926)">
		<stop  offset="0" style="stop-color:#62A73B"/>
		<stop  offset="0.8" style="stop-color:#8DC63F"/>
		<stop  offset="1" style="stop-color:#8DC63F"/>
	</linearGradient>
	<rect x="302.429" y="44.897" clip-path="url(#SVGID_4_)" fill="url(#SVGID_5_)" width="58.441" height="32.274"/>
</g>
<g>
	<defs>
		<path id="SVGID_6_" d="M305.141,63.872l0.584,3.959c1.663-0.246,3.348-0.414,5.078-0.414c13.06,0,24.451,7.214,30.45,17.856
			l3.482-1.964c-6.685-11.855-19.377-19.895-33.932-19.895C308.876,63.414,306.994,63.602,305.141,63.872"/>
	</defs>
	<clipPath id="SVGID_7_">
		<use xlink:href="#SVGID_6_"  overflow="visible"/>
	</clipPath>
	
		<linearGradient id="SVGID_8_" gradientUnits="userSpaceOnUse" x1="-4.882813e-004" y1="350.0488" x2="0.9995" y2="350.0488" gradientTransform="matrix(39.5948 0 0 -39.5948 305.1563 13934.4434)">
		<stop  offset="0" style="stop-color:#62A73B"/>
		<stop  offset="0.8" style="stop-color:#8DC63F"/>
		<stop  offset="1" style="stop-color:#8DC63F"/>
	</linearGradient>
	<rect x="305.141" y="63.414" clip-path="url(#SVGID_7_)" fill="url(#SVGID_8_)" width="39.594" height="21.859"/>
</g>
<g>
	<defs>
		<path id="SVGID_9_" d="M310.803,0c-5.072,0-10.054,0.385-14.933,1.102l1.465,9.9c4.401-0.644,8.893-0.991,13.468-0.991
			c34.477,0,64.58,19.004,80.442,47.072l8.713-4.911C382.378,21.059,349.013,0,310.803,0z"/>
	</defs>
	<clipPath id="SVGID_10_">
		<use xlink:href="#SVGID_9_"  overflow="visible"/>
	</clipPath>
	
		<linearGradient id="SVGID_11_" gradientUnits="userSpaceOnUse" x1="0" y1="350.0488" x2="1" y2="350.0488" gradientTransform="matrix(104.0879 0 0 -104.0879 295.875 36464.3984)">
		<stop  offset="0" style="stop-color:#62A73B"/>
		<stop  offset="0.8" style="stop-color:#8DC63F"/>
		<stop  offset="1" style="stop-color:#8DC63F"/>
	</linearGradient>
	<rect x="295.87" clip-path="url(#SVGID_10_)" fill="url(#SVGID_11_)" width="104.088" height="57.083"/>
</g>
<g>
	<defs>
		<path id="SVGID_12_" d="M299.339,24.571l1.169,7.926c3.363-0.494,6.796-0.757,10.292-0.757c26.373,0,49.398,14.538,61.524,36.012
			l6.976-3.932c-13.505-23.905-39.141-40.092-68.5-40.092C306.905,23.728,303.081,24.024,299.339,24.571"/>
	</defs>
	<clipPath id="SVGID_13_">
		<use xlink:href="#SVGID_12_"  overflow="visible"/>
	</clipPath>
	
		<linearGradient id="SVGID_14_" gradientUnits="userSpaceOnUse" x1="4.882813e-004" y1="350.0488" x2="1.0005" y2="350.0488" gradientTransform="matrix(79.9609 0 0 -79.9609 299.3125 28035.9551)">
		<stop  offset="0" style="stop-color:#62A73B"/>
		<stop  offset="0.8" style="stop-color:#8DC63F"/>
		<stop  offset="1" style="stop-color:#8DC63F"/>
	</linearGradient>
	<rect x="299.339" y="23.728" clip-path="url(#SVGID_13_)" fill="url(#SVGID_14_)" width="79.961" height="44.024"/>
</g>
<g>
	<defs>
		<rect id="SVGID_15_" width="697.962" height="350.049"/>
	</defs>
	<clipPath id="SVGID_16_">
		<use xlink:href="#SVGID_15_"  overflow="visible"/>
	</clipPath>
	<path clip-path="url(#SVGID_16_)" fill="#160D47" d="M121.851,250.103h20.692c-6.241,13.636-15.269,24.333-27.1,32.098
		c-11.821,7.764-25.171,11.645-40.043,11.645c-20.862,0-38.643-6.9-53.35-20.703C7.352,259.343,0,242.093,0,221.396
		c0-20.2,7.389-37.246,22.179-51.129c14.782-13.88,32.279-20.817,52.488-20.817c14.943,0,28.752,4.079,41.391,12.255
		c12.657,8.174,21.564,19.073,26.739,32.715h-20.946c-4.844-8.26-11.522-14.831-20.02-19.746
		c-8.505-4.903-17.479-7.361-26.918-7.361c-15.451,0-28.666,5.122-39.671,15.366c-11.008,10.256-16.513,23.052-16.513,38.41
		c0,15.351,5.296,28.334,15.892,38.956c10.59,10.624,23.533,15.932,38.816,15.932C93.392,275.978,109.528,267.352,121.851,250.103"
		/>
	<path clip-path="url(#SVGID_16_)" fill="#160D47" d="M162.771,290.514v-186.41h18.732v68.269
		c3.859-7.199,9.606-12.81,17.245-16.856c7.643-4.051,15.85-6.067,24.645-6.067c19.173,0,34.936,7.059,47.27,21.186
		c9.633,10.925,14.41,26.655,14.327,47.192v72.686H266.26v-72.762c0-14.299-2.706-25.325-8.133-33.047
		c-8.209-11.594-20.079-17.392-35.598-17.392c-6.405,0-12.712,1.5-18.91,4.502c-6.204,3.002-11.232,7.128-15.095,12.396
		c-4.681,6.406-7.022,17.588-7.022,33.541v72.762H162.771z"/>
	<path clip-path="url(#SVGID_16_)" fill="#160D47" d="M697.962,228.172H573.157c0.492,13.01,6.039,24.229,16.637,33.659
		c10.592,9.431,22.34,14.146,35.23,14.146c10.43,0,20.29-2.744,29.566-8.221c9.29-5.484,15.94-12.891,19.96-22.211h19.478
		c-4.852,13.958-13.605,25.505-26.251,34.618c-12.646,9.116-26.277,13.681-40.899,13.681c-20.212,0-37.336-6.983-51.38-20.945
		c-14.04-13.967-21.071-31.049-21.071-51.254c0-20.048,6.986-37.086,20.949-51.126c13.96-14.046,30.968-21.07,51.006-21.07
		c22.346,0,40.824,8.911,55.44,26.729c6.076,7.398,10.208,15.14,12.385,23.227C696.382,207.5,697.64,217.087,697.962,228.172
		 M573.157,211.292h106.199c-2.379-12.351-8.622-22.771-18.717-31.252c-10.112-8.492-21.443-12.727-34.007-12.727
		c-13.146,0-24.789,4.157-34.935,12.473C581.555,188.112,575.376,198.616,573.157,211.292"/>
	<path clip-path="url(#SVGID_16_)" fill="#160D47" d="M528.483,170.395c-9.632-11.73-25.623-20.945-42.949-20.945
		c-8.373,0-16.542,1.835-24.539,5.514c-8.003,3.669-14.346,8.771-19.059,15.303c-0.163,0.494-0.577,1.341-1.245,2.537
		c-0.656,1.189-1.153,2.112-1.491,2.771c-0.567-0.486-1.19-1.328-1.845-2.514c-0.599-1.072-1.109-1.854-1.575-2.507
		c-0.016-0.057-0.114-0.223-0.137-0.287c-4.703-6.532-11.057-11.634-19.053-15.303c-7.993-3.679-16.184-5.514-24.541-5.514
		c-0.229,0-0.419,0.019-0.648,0.033c-0.188-0.014-0.365-0.033-0.544-0.033c-1.271,0-2.483,0.124-3.706,0.203
		c-0.537,0.043-1.111,0.043-1.639,0.093c-0.644,0.069-1.283,0.174-1.921,0.264c-13.004,1.647-25.095,7.986-34.489,18.944
		c-9.404,10.966-12.808,23.779-12.808,42.835v78.725h3.88h14.853h0.095v-79.056c0-0.892,0.084-1.631,0.111-2.485
		c0.465-11.148,2.592-19.681,6.554-25.252c7.603-10.759,17.832-16.185,30.672-16.347c12.659,0.162,22.815,5.666,30.423,16.589
		c2.689,3.987,4.46,9.025,5.519,14.912c0.556,4.272,0.924,8.978,0.924,14.557v77.082h0.215h18.511h0.22v-77.082
		c0-14.717,1.923-24.867,5.773-30.453c3.363-4.775,7.815-8.572,13.351-11.414c5.532-2.838,11.25-4.251,17.154-4.251
		c13.118,0,23.536,5.473,31.234,16.407c4.51,6.323,6.773,16.23,6.773,29.711v77.082h18.723v-78.725
		C541.278,192.732,538.118,182.113,528.483,170.395"/>
	<path clip-path="url(#SVGID_16_)" fill="#160D47" d="M339.463,133.218c-12.346,0-22.126-2.819-30.155-4.895
		c-8.028-2.075-24.631-2.543-37.587-2.543c-19.057,0-23.169-18.713-19.958-37.792c-3.476,7.006-14.305,33.847,9.512,46.567
		c21.926,10.732,39.675,38.41,39.675,65.932v90.077h0.369h18.96h0.371v-90.077c0-27.023,17.114-48.467,38.498-59.393
		c10.013-5.114,36.218-15.364,39.043-21.875C398.19,119.219,363.746,133.218,339.463,133.218"/>
	<path clip-path="url(#SVGID_16_)" fill="#160D47" d="M330.306,102.358c0,10.768-8.726,19.505-19.51,19.505
		c-10.766,0-19.5-8.737-19.5-19.505c0-10.771,8.734-19.497,19.5-19.497C321.58,82.861,330.306,91.587,330.306,102.358"/>
</g>
</svg>
