<?xml version="1.0" encoding="utf-8"?>
<!-- Generator: Adobe Illustrator 16.0.0, SVG Export Plug-In . SVG Version: 6.00 Build 0)  -->
<!DOCTYPE svg PUBLIC "-//W3C//DTD SVG 1.1//EN" "http://www.w3.org/Graphics/SVG/1.1/DTD/svg11.dtd">
<svg version="1.1" id="Layer_1" xmlns="http://www.w3.org/2000/svg" xmlns:xlink="http://www.w3.org/1999/xlink" x="0px" y="0px"
	 width="83.345px" height="53.374px" viewBox="0 0 83.345 53.374" enable-background="new 0 0 83.345 53.374" xml:space="preserve">
<g>
	<defs>
		<rect id="SVGID_1_" width="83.344" height="53.374"/>
	</defs>
	<clipPath id="SVGID_2_">
		<use xlink:href="#SVGID_1_"  overflow="visible"/>
	</clipPath>
	<path clip-path="url(#SVGID_2_)" fill="#140D46" d="M39.063,0h3.873c0.337,0.279,0.769,0.239,1.158,0.331
		c3.194,0.753,5.101,2.656,5.515,5.678c0.332,2.417,0.484,4.85,0.104,7.284c-0.036,0.235-0.146,0.469,0.242,0.584
		c0.75,0.224,0.915,0.856,0.889,1.539c-0.061,1.51-0.541,2.905-1.253,4.223c-0.159,0.294-0.395,0.624-0.735,0.645
		c-0.561,0.036-0.536,0.349-0.574,0.767c-0.115,1.255-0.162,2.599-1.279,3.43c-0.91,0.68-0.264,1.48-0.317,2.204
		c-0.035,0.464,0.618,0.366,0.941,0.377c0.636,0.023,0.748,0.342,0.697,0.857c-0.075,0.762,0.258,1.237,0.938,1.605
		c1.408,0.762,2.851,1.411,4.406,1.818c1.573,0.412,3.102,0.952,4.514,1.781c1.575,0.925,2.708,2.083,3.099,4.021
		c0.697,3.451,1.668,6.847,2.445,10.283c0.441,1.956,0.983,3.907,0.928,5.945c-15.16,0-30.319,0-45.479-0.001
		c-0.476,0-0.953-0.017-1.429-0.026c0.821-4.63,1.815-9.225,2.72-13.837c0.426-2.167,1.543-3.739,3.283-4.96
		c0.642-0.45,1.299-0.882,1.98-1.269c2.578-1.466,5.365-2.517,7.947-3.986c0.705-0.401,1.084-0.803,1.01-1.595
		c-0.036-0.386,0.046-0.575,0.514-0.635c1.407-0.179,1.394-0.21,1.199-1.641c-0.045-0.323-0.102-0.569-0.426-0.747
		c-0.561-0.307-0.884-0.838-1.154-1.404c-0.356-0.748-0.471-1.547-0.557-2.358c-0.026-0.248,0.044-0.552-0.408-0.584
		c-0.798-0.057-1.083-0.686-1.143-1.346c-0.085-0.927-0.295-1.82-0.501-2.72c-0.157-0.687-0.086-1.383,0.494-1.852
		c0.407-0.33,0.366-0.621,0.176-1.01c-1.053-2.146-0.801-4.42-0.615-6.679c0.075-0.923,0.283-1.825,0.694-2.669
		c0.43-0.882,1.03-1.531,2.098-1.555c0.144-0.004,0.357,0.08,0.349-0.207c-0.03-1.008,0.757-1.307,1.472-1.6
		C37.582,0.404,38.332,0.227,39.063,0"/>
	<path clip-path="url(#SVGID_2_)" fill="#140D46" d="M53.517,22.873c0.029-0.107,0.038-0.227,0.093-0.318
		c1.435-2.353,2.033-4.948,2.269-7.661c0.177-2.011,0.513-4.004,0.938-5.974c0.818-3.784,2.763-5.455,6.618-6.198
		c4.373-0.843,8.289,1.997,9.125,6.392c0.43,2.257,0.807,4.524,1.027,6.813c0.238,2.469,1.146,4.717,2.253,6.901
		c-0.041,0.04-0.082,0.08-0.123,0.12c-0.636-0.317-0.979-0.974-1.608-1.417c0.001,0.606,0.144,1.122,0.467,1.524
		c0.476,0.593,0.252,0.825-0.353,1.016c-1.358,0.429-2.707,0.883-4.061,1.33c-0.273,0.09-0.7,0.073-0.612,0.516
		c0.117,0.585-0.358,1.33,0.384,1.747c0.926,0.52,1.697,1.153,2.136,2.162c0.242,0.558,0.7,0.917,1.308,1.096
		c1.565,0.459,2.823,1.598,4.409,2.015c0.622,0.163,1.247,0.316,1.876,0.449c1.971,0.417,3.242,1.915,3.328,3.929
		c0.055,1.314,0.124,2.628,0.186,3.942c0.008,0.135-0.015,0.285,0.168,0.331v5.725c-5.719,0.01-11.438,0.015-17.157,0.036
		c-0.395,0.002-0.507-0.124-0.577-0.501c-0.592-3.193-1.731-6.278-2.233-9.468c-0.56-3.555-2.755-5.411-5.723-6.734
		c-0.611-0.272-0.608-0.442-0.307-1.005c0.461-0.863,1.104-1.478,1.943-1.896c0.863-0.431,0.36-1.187,0.479-1.787
		c0.109-0.562-0.424-0.484-0.729-0.593c-1.342-0.482-2.739-0.794-4.061-1.345c-0.478-0.199-0.691-0.347-0.311-0.864
		c0.325-0.441,0.457-0.993,0.558-1.617c-0.648,0.436-0.971,1.12-1.627,1.416C53.571,22.927,53.544,22.9,53.517,22.873"/>
	<path clip-path="url(#SVGID_2_)" fill="#140D46" d="M0,41.251c0.394-0.755,0.25-1.619,0.489-2.408
		c0.122-0.399,0.196-0.814,0.285-1.225c0.744-3.406,2.888-5.484,6.177-6.422c2.846-0.812,5.493-2.072,8.107-3.422
		c0.075-0.039,0.16-0.062,0.226-0.111c0.43-0.329,0.925-3.281,0.61-3.732c-1.038-1.49-1.76-3.115-2.117-4.898
		c-0.05-0.25-0.092-0.473-0.439-0.512c-0.568-0.063-0.808-0.519-0.872-0.999c-0.151-1.136-0.234-2.281-0.341-3.423
		c-0.019-0.2-0.008-0.445,0.162-0.543c0.771-0.444,0.496-1.151,0.476-1.787c-0.029-0.924-0.14-1.848-0.121-2.771
		c0.032-1.559,0.608-2.909,1.844-3.897c1.31-1.048,2.833-1.787,4.132-2.861c0.231,0.321,0.017,0.61,0.158,0.948
		c0.696-0.773,1.326-1.544,2.221-2.127c0.084,0.598-0.064,1.176,0.304,1.731c0.068-0.364,0.188-0.528,0.573-0.348
		c1.727,0.808,3.45,1.632,4.912,2.876c1.155,0.983,1.657,2.315,1.658,3.812c0,1.12-0.077,2.24-0.143,3.359
		c-0.021,0.358-0.018,0.65,0.371,0.827c0.295,0.135,0.475,0.414,0.512,0.732c0.139,1.205,0.043,2.4-0.244,3.576
		c-0.036,0.149-0.176,0.377-0.286,0.389c-0.987,0.104-0.843,0.939-1.008,1.545c-0.432,1.595-1.147,3.039-2.241,4.276
		c-0.271,0.306-0.383,0.584-0.311,0.974c0.137,0.744,0.253,1.492,0.378,2.238c0.064,0.383,0.25,0.614,0.638,0.787
		c0.993,0.445,1.95,0.972,3.001,1.504c-1.402,0.677-2.747,1.295-4.065,1.969c-1.327,0.678-2.558,1.507-3.65,2.53
		c-1.383,1.298-2.339,2.821-2.707,4.724c-0.457,2.362-1.022,4.706-1.52,7.061c-0.085,0.401-0.248,0.55-0.671,0.548
		C10.999,46.148,5.499,46.144,0,46.134V41.251z"/>
</g>
</svg>
