<?xml version="1.0" encoding="utf-8"?>
<!-- Generator: Adobe Illustrator 16.0.0, SVG Export Plug-In . SVG Version: 6.00 Build 0)  -->
<!DOCTYPE svg PUBLIC "-//W3C//DTD SVG 1.1//EN" "http://www.w3.org/Graphics/SVG/1.1/DTD/svg11.dtd">
<svg version="1.1" id="Layer_1" xmlns="http://www.w3.org/2000/svg" xmlns:xlink="http://www.w3.org/1999/xlink" x="0px" y="0px"
	 width="48.63px" height="51.237px" viewBox="0 0 48.63 51.237" enable-background="new 0 0 48.63 51.237" xml:space="preserve">
<g>
	<defs>
		<rect id="SVGID_1_" width="48.63" height="51.237"/>
	</defs>
	<clipPath id="SVGID_2_">
		<use xlink:href="#SVGID_1_"  overflow="visible"/>
	</clipPath>
	<path clip-path="url(#SVGID_2_)" fill="#150D47" d="M48.63,26.155c0,0.959-1.074,1.337-1.384,2.05
		c-0.224,0.517-0.246,1.273-0.034,1.791c0.328,0.802,1.189,1.14,1.189,2.747c0,1.608-0.704,1.924-1.287,2.45
		c-0.801,0.72-0.896,1.396-0.423,2.364c1.27,2.606,1.022,3.384-1.178,5.387c-0.458,0.417-0.866,1.17-0.863,1.765
		c0.016,2.851-1.689,5.215-4.491,5.875c-1.228,0.289-2.487,0.439-3.732,0.653h-5.392c-0.692-0.104-1.381-0.236-2.077-0.309
		c-2.949-0.311-5.913-0.516-8.848-0.93c-2.588-0.364-5.143-0.957-7.652-1.437V27.917c2.317,0.016,3.604-1.479,4.577-3.172
		c1.358-2.365,2.597-4.811,3.697-7.307c0.709-1.606,1.574-2.997,3.011-4.005c1.999-1.403,3.162-3.368,3.647-5.704
		c0.393-1.886,0.558-3.818,0.906-5.714c0.119-0.645,0.396-1.631,0.751-1.861c0.355-0.231,0.721-0.178,1.135,0
		c4.217,2.1,5.252,3.674,4.698,8.479c-0.222,1.933-1.29,3.777-2.03,5.639c-0.69,1.739-1.553,3.415-2.154,5.181
		c-0.382,1.12,0.193,1.567,1.438,1.441c2.574-0.261,5.164-0.356,7.746-0.538c4.005-0.282,7.143,0.919,8.629,4.988
		C48.521,25.377,48.63,25.598,48.63,26.155"/>
	<path clip-path="url(#SVGID_2_)" fill="#150D47" d="M0,26.673h9.324c0.025,0.452,0.073,0.901,0.073,1.351
		c0.005,6.797-0.022,13.594,0.028,20.39c0.009,1.12-0.317,1.479-1.428,1.453C5.365,49.802,2.73,49.845,0,49.845V26.673z"/>
</g>
</svg>
