<?xml version="1.0" encoding="UTF-8" standalone="no"?>
<!DOCTYPE svg PUBLIC "-//W3C//DTD SVG 1.1//EN" "http://www.w3.org/Graphics/SVG/1.1/DTD/svg11.dtd">
<svg xmlns="http://www.w3.org/2000/svg">
<metadata/>
<defs>
<font id="PhiRoman" horiz-adv-x="1229">
<font-face units-per-em="2048" ascent="1638" descent="-410"/>
<missing-glyph horiz-adv-x="519"/>
<glyph horiz-adv-x="0"/>
<glyph horiz-adv-x="2048"/>
<glyph unicode=" " horiz-adv-x="519"/>
<glyph unicode="	" horiz-adv-x="519"/>
<glyph unicode=" " horiz-adv-x="519"/>
<glyph unicode="!" horiz-adv-x="510" d="M158 0v223h196v-223h-196zM169 1432h172l-15 -1067h-142z"/>
<glyph unicode="&quot;" horiz-adv-x="758" d="M130 1432h179l-21 -487h-137zM449 1432h179l-21 -487h-137z"/>
<glyph unicode="#" horiz-adv-x="1296" d="M71 338v140h208l76 477h-175v140h198l54 337h155l-54 -337h351l54 337h157l-54 -337h184v-140h-207l-77 -477h175v-140h-197l-55 -338h-156l54 338h-351l-54 -338h-155l54 338h-185zM434 478h351l76 477h-351z"/>
<glyph unicode="$" horiz-adv-x="1075" d="M71 155l105 126q155 -128 329 -141v522q-169 62 -251 125q-142 111 -142 284q0 166 123 276q110 99 270 110v124h98v-126q181 -17 337 -137l-96 -132q-121 85 -241 102v-469q172 -66 267 -149q134 -117 134 -286q0 -174 -129 -292q-109 -103 -272 -118v-126h-98v124 q-242 12 -434 183zM286 1071q0 -77 63 -130q50 -45 156 -86v435q-87 -9 -146 -58q-73 -58 -73 -161zM603 143q89 13 149 64q77 65 77 177q0 94 -85 162q-51 39 -141 78v-481z"/>
<glyph unicode="%" horiz-adv-x="1643" d="M70 1087q0 152 96.5 261.5t234.5 109.5q137 0 233.5 -109.5t96.5 -261.5q0 -154 -96.5 -264t-233.5 -110q-138 0 -234.5 110t-96.5 264zM215 1088q0 -105 54.5 -172t131.5 -67q74 0 128.5 67t54.5 172q0 102 -54.5 168t-128.5 66q-77 0 -131.5 -66t-54.5 -168zM220 0 l1027 1432h175l-1025 -1432h-177zM912 345q0 152 96.5 261.5t233.5 109.5q138 0 234.5 -109.5t96.5 -261.5q0 -154 -96.5 -264t-234.5 -110q-137 0 -233.5 110t-96.5 264zM1058 346q0 -105 54.5 -172t130.5 -67q75 0 129.5 67t54.5 172q0 102 -54.5 168t-129.5 66 q-76 0 -130.5 -66t-54.5 -168z"/>
<glyph unicode="&amp;" horiz-adv-x="1249" d="M78 389q0 272 308 436q-141 197 -141 338q0 161 114 260q100 88 232 88q134 0 233 -86q113 -98 113 -264q0 -140 -98 -246q-72 -76 -211 -148l302 -388q64 77 128 179l131 -80q-79 -128 -162 -223l198 -255h-199l-110 142q-196 -171 -409 -171q-174 0 -298 112 q-131 120 -131 306zM233 389q0 -108 76 -182q77 -80 198 -80q159 0 314 137l-337 433q-251 -130 -251 -308zM402 1163q0 -71 48 -154q22 -39 80 -116q114 56 170 104q81 73 81 164q0 84 -52 136q-52 57 -138 57q-84 0 -138 -60q-51 -54 -51 -131z"/>
<glyph unicode="'" horiz-adv-x="439" d="M130 1432h179l-21 -487h-137z"/>
<glyph unicode="(" horiz-adv-x="658" d="M80 515q0 296 118.5 551t324.5 417l97 -122q-179 -139 -282 -362t-103 -484t103 -484.5t282 -361.5l-97 -124q-206 163 -324.5 418.5t-118.5 551.5z"/>
<glyph unicode=")" horiz-adv-x="658" d="M38 -331q178 138 282 361.5t104 484.5t-104 484t-282 362l97 122q206 -162 324.5 -417t118.5 -551t-118.5 -551.5t-324.5 -418.5z"/>
<glyph unicode="*" horiz-adv-x="812" d="M88 1157l38 118l216 -66v223h128v-224l216 67l38 -118l-216 -70l135 -183l-101 -74l-135 181l-133 -181l-102 75l131 182z"/>
<glyph unicode="+" horiz-adv-x="1117" d="M78 483v161h400v400h161v-400h400v-161h-400v-400h-161v400h-400z"/>
<glyph unicode="," horiz-adv-x="523" d="M-2 -304l186 508h208l-245 -508h-149z"/>
<glyph unicode="-" horiz-adv-x="837" d="M129 483v161h579v-161h-579z"/>
<glyph unicode="." horiz-adv-x="461" d="M129 0v204h203v-204h-203z"/>
<glyph unicode="/" horiz-adv-x="920" d="M56 0l639 1432h171l-640 -1432h-170z"/>
<glyph unicode="0" horiz-adv-x="1322" d="M99 715q0 313 159 525t402 212q245 0 404 -212t159 -525q0 -314 -159 -526t-404 -212q-243 0 -402 212t-159 526zM277 715q0 -249 108 -410t275 -161t275.5 161t108.5 410q0 250 -108.5 411t-275.5 161t-275 -161t-108 -411z"/>
<glyph unicode="1" horiz-adv-x="698" d="M24 1248l385 184h107v-1432h-172v1221l-251 -119z"/>
<glyph unicode="2" horiz-adv-x="1104" d="M66 0v132l620 657q126 135 126 264q0 110 -68 175.5t-196 65.5q-144 0 -352 -151l-93 129q242 186 452 186q206 0 320 -111.5t114 -293.5q0 -191 -207 -403l-460 -487h686v-163h-942z"/>
<glyph unicode="3" horiz-adv-x="1148" d="M64 101l82 140q184 -103 367 -103q176 0 272 72.5t96 183.5q0 109 -115 183.5t-339 74.5v177q208 0 305.5 67t97.5 165q0 103 -84.5 167.5t-233.5 64.5q-169 0 -345 -80l-70 140q193 105 415 105q215 0 354.5 -112t139.5 -291q0 -193 -243 -309q288 -127 288 -346 q0 -190 -149 -309.5t-390 -119.5q-234 0 -448 130z"/>
<glyph unicode="4" horiz-adv-x="1222" d="M38 324v116l791 992h127v-954h201v-154h-201v-324h-172v324h-746zM254 478h530v665z"/>
<glyph unicode="5" horiz-adv-x="1129" d="M72 148l100 129q190 -143 361 -143q162 0 253.5 87t91.5 216q0 148 -91.5 234t-253.5 86q-137 0 -277 -69l-112 61l56 683h751v-160h-593l-31 -384q106 32 206 32q230 0 375 -136t145 -338t-145 -338.5t-375 -136.5q-242 0 -461 177z"/>
<glyph unicode="6" horiz-adv-x="1198" d="M102 685q0 356 155.5 564.5t417.5 208.5q206 0 355 -101l-81 -139q-125 74 -274 74q-179 0 -281.5 -141t-115.5 -401q145 207 365 207q202 0 341.5 -144t139.5 -348q0 -205 -144.5 -349.5t-346.5 -144.5q-158 0 -283 88t-179 230q-69 164 -69 396zM313 465 q0 -134 93.5 -232t227.5 -98q131 0 224 97.5t93 232.5q0 134 -93 231t-224 97q-134 0 -227.5 -97t-93.5 -231z"/>
<glyph unicode="7" horiz-adv-x="1015" d="M36 1272v160h951v-102l-507 -1330h-187l502 1272h-759z"/>
<glyph unicode="8" horiz-adv-x="1221" d="M101 400q0 213 249 348q-218 122 -218 308q0 171 136 286.5t342 115.5q207 0 342.5 -115.5t135.5 -286.5q0 -186 -212 -311q243 -132 243 -345q0 -181 -144.5 -305t-364.5 -124q-219 0 -364 124t-145 305zM274 394q0 -107 92.5 -182t243.5 -75t244 75t93 182t-92.5 182.5 t-244.5 75.5q-151 0 -243.5 -75.5t-92.5 -182.5zM306 1062q0 -95 83 -163.5t221 -68.5q139 0 221.5 68.5t82.5 163.5q0 96 -83 164t-221 68t-221 -68t-83 -164z"/>
<glyph unicode="9" horiz-adv-x="1198" d="M74 964q0 205 144.5 349.5t347.5 144.5q157 0 282 -88t179 -230q69 -164 69 -396q0 -368 -154 -570.5t-428 -202.5q-206 0 -373 113l84 138q139 -85 289 -85q191 0 295 139.5t112 402.5q-145 -207 -365 -207q-203 0 -342.5 144t-139.5 348zM247 964q0 -134 93.5 -231 t224.5 -97q134 0 227 97t93 231t-93 232t-227 98q-131 0 -224.5 -97.5t-93.5 -232.5z"/>
<glyph unicode=":" horiz-adv-x="461" d="M129 0v204h203v-204h-203zM129 820v204h203v-204h-203z"/>
<glyph unicode="&lt;" horiz-adv-x="1174" d="M64 510v104l992 459v-183l-740 -328l740 -328v-183z"/>
<glyph unicode="=" horiz-adv-x="1275" d="M135 255v161h1005v-161h-1005zM135 706v161h1005v-161h-1005z"/>
<glyph unicode="&gt;" horiz-adv-x="1174" d="M118 51v183l740 328l-740 328v183l992 -459v-104z"/>
<glyph unicode="?" horiz-adv-x="1078" d="M61 1281q214 177 451 177q207 0 346 -115q137 -113 137 -294q0 -124 -68 -219q-43 -61 -150 -144q-115 -91 -153 -136q-70 -86 -70 -187h-141q0 129 62 229q43 67 140 146q111 94 142 129q65 81 65 182q0 118 -86 183q-87 65 -224 65q-174 0 -357 -141zM386 0v222h195 v-222h-195z"/>
<glyph unicode="@" horiz-adv-x="2020" d="M87 514q0 391 277 667q276 277 669 277q403 0 668 -266q251 -252 251 -601q0 -251 -116 -423q-119 -177 -301 -177q-110 0 -179 59q-59 51 -79 138q-19 -23 -41 -44q-152 -153 -342 -153t-301 152.5t-81 377.5t182.5 377.5t341.5 152.5q191 0 302 -152l16 -24l19 141h165 l-94 -705q-23 -172 93 -172q105 0 184 130q81 135 81 322q0 291 -212 500q-222 219 -557 219q-331 0 -564 -233q-232 -233 -232 -563q0 -329 232 -562q233 -233 564 -233q251 0 443 136l84 -125q-229 -162 -527 -162q-393 0 -669 277q-277 276 -277 669zM674 521 q-22 -159 49.5 -266.5t207.5 -107.5t247.5 103.5t134.5 270.5q22 166 -56.5 269t-214.5 103t-240.5 -103.5t-127.5 -268.5z"/>
<glyph unicode="A" d="M6 0l549 1432h119l550 -1432h-186l-104 280h-639l-103 -280h-186zM355 444h519l-260 702z"/>
<glyph unicode="B" horiz-adv-x="1233" d="M182 0v1432h489q202 0 315 -113.5t113 -274.5q0 -182 -185 -298q219 -118 219 -333q0 -169 -121 -292q-122 -121 -333 -121h-497zM354 161h325q130 0 206 69.5t76 182.5t-76 181t-206 68h-325v-501zM354 821h317q118 0 186.5 61t68.5 162q0 106 -68.5 167.5t-186.5 61.5 h-317v-452z"/>
<glyph unicode="C" horiz-adv-x="1251" d="M94 715q0 321 175.5 532t446.5 211q272 0 469 -239l-115 -106q-164 177 -354 177q-197 0 -322 -163t-125 -412q0 -250 125 -413t322 -163q190 0 354 177l115 -106q-197 -239 -469 -239q-271 0 -446.5 211t-175.5 533z"/>
<glyph unicode="D" horiz-adv-x="1324" d="M182 0v1432h361q331 0 509 -210t178 -506t-178 -506t-509 -210h-361zM354 161h189q257 0 385 162t128 393t-128 394t-385 163h-189v-1112z"/>
<glyph unicode="E" horiz-adv-x="1198" d="M182 0v1432h918v-161h-746v-466h658v-160h-658v-482h754v-163h-926z"/>
<glyph unicode="F" horiz-adv-x="1166" d="M182 0v1432h918v-161h-746v-541h658v-161h-658v-569h-172z"/>
<glyph unicode="G" horiz-adv-x="1321" d="M93 714q0 313 178 528.5t448 215.5q248 0 432 -190l-113 -115q-142 139 -319 139q-197 0 -324.5 -169t-127.5 -409q0 -239 127.5 -407t324.5 -168q183 0 325 152v331h-340v162h511v-556q-215 -257 -496 -257q-270 0 -448 215.5t-178 527.5z"/>
<glyph unicode="H" horiz-adv-x="1374" d="M182 0v1432h172v-629h667v629h171v-1432h-171v640h-667v-640h-172z"/>
<glyph unicode="I" horiz-adv-x="536" d="M182 0v1432h172v-1432h-172z"/>
<glyph unicode="J" horiz-adv-x="1015" d="M4 145l105 116q134 -128 279 -128q125 0 204.5 83t79.5 270v946h172v-946q0 -248 -128.5 -381.5t-327.5 -133.5q-211 0 -384 174z"/>
<glyph unicode="K" horiz-adv-x="1201" d="M182 0v1432h172v-780l582 780h220l-469 -607l515 -825h-205l-422 679l-221 -285v-394h-172z"/>
<glyph unicode="L" horiz-adv-x="1108" d="M182 0v1432h172v-1269h730v-163h-902z"/>
<glyph unicode="M" horiz-adv-x="1542" d="M182 0v1432h133l457 -775l455 775h133v-1432h-173v1078l-415 -705l-418 705v-1078h-172z"/>
<glyph unicode="N" horiz-adv-x="1365" d="M182 0v1432h133l697 -1084v1084h171v-1432h-132l-697 1085v-1085h-172z"/>
<glyph unicode="O" horiz-adv-x="1445" d="M92 715q0 307 183 525t447 218q265 0 448 -218t183 -525q0 -308 -183 -526t-448 -218q-264 0 -447 218t-183 526zM265 715q0 -247 129 -412.5t329 -165.5q198 0 327.5 160t129.5 418q0 256 -129.5 416t-327.5 160q-199 0 -328.5 -160.5t-129.5 -415.5z"/>
<glyph unicode="P" horiz-adv-x="1187" d="M182 0v1432h425q238 0 382 -137t144 -339t-144 -338.5t-382 -136.5h-253v-481h-172zM354 641h253q176 0 265 90.5t89 224.5q0 136 -89 226.5t-265 90.5h-253v-632z"/>
<glyph unicode="Q" horiz-adv-x="1443" d="M91 715q0 307 185 525t445 218q261 0 446 -218t185 -525q0 -275 -147 -478l162 -189l-111 -100l-151 176q-165 -153 -384 -153q-260 0 -445 218t-185 526zM264 715q0 -247 131.5 -412.5t326.5 -165.5q160 0 278 109l-176 206l114 97l157 -184q84 144 84 350 q0 256 -131.5 416.5t-325.5 160.5q-195 0 -326.5 -161t-131.5 -416z"/>
<glyph unicode="R" horiz-adv-x="1239" d="M182 0v1432h425q238 0 382 -137t144 -339t-144 -338q-68 -64 -156 -98l350 -520h-208l-322 481h-299v-481h-172zM354 641h253q176 0 265 90.5t89 224.5q0 136 -89 226.5t-265 90.5h-253v-632z"/>
<glyph unicode="S" horiz-adv-x="1081" d="M74 155l105 126q172 -142 367 -142q129 0 209 68q77 65 77 177q0 94 -85 162q-75 57 -235 115q-172 62 -255 126q-142 111 -142 284q0 166 123 276q123 111 308 111q215 0 397 -140l-96 -132q-152 106 -301 106q-112 0 -184 -60q-73 -58 -73 -161q0 -77 63 -130 q64 -57 218 -109q198 -70 303 -162q134 -117 134 -286q0 -174 -129 -292q-129 -121 -332 -121q-265 0 -472 184z"/>
<glyph unicode="T" horiz-adv-x="1049" d="M26 1273v159h997v-159h-412v-1273h-172v1273h-413z"/>
<glyph unicode="U" horiz-adv-x="1457" d="M169 561v871h177v-883q0 -188 112 -300t270 -112q156 0 269 112t113 300v883h178v-871q0 -262 -164.5 -426t-395.5 -164q-232 0 -395.5 164t-163.5 426z"/>
<glyph unicode="V" horiz-adv-x="1172" d="M4 1432h184l398 -1123l399 1123h184l-522 -1432h-121z"/>
<glyph unicode="W" horiz-adv-x="1809" d="M9 1432h179l327 -1105l326 1105h127l326 -1105l327 1105h179l-442 -1432h-129l-324 1107l-325 -1107h-129z"/>
<glyph unicode="X" horiz-adv-x="1119" d="M23 0l440 735l-418 697h191l324 -538l322 538h193l-420 -697l441 -735h-192l-344 575l-345 -575h-192z"/>
<glyph unicode="Y" horiz-adv-x="1032" d="M-12 1432h193l337 -698l334 698h192l-442 -884v-548h-172v548z"/>
<glyph unicode="Z" horiz-adv-x="1116" d="M74 0v111l730 1160h-710v161h931v-110l-730 -1159h745v-163h-966z"/>
<glyph unicode="[" horiz-adv-x="698" d="M159 -442v1915h481v-151h-314v-1614h314v-150h-481z"/>
<glyph unicode="\" horiz-adv-x="920" d="M54 1432h171l639 -1432h-170z"/>
<glyph unicode="]" horiz-adv-x="698" d="M58 -291h314v1613h-314v151h481v-1915h-481v151z"/>
<glyph unicode="^" horiz-adv-x="1073" d="M100 737l372 695h129l372 -695h-156l-281 526l-279 -526h-157z"/>
<glyph unicode="_" horiz-adv-x="1199" d="M128 -128h943v-156h-943v156z"/>
<glyph unicode="`" horiz-adv-x="517" d="M100 1432h191l126 -229h-130z"/>
<glyph unicode="a" horiz-adv-x="1092" d="M62 310q0 138 108 234q112 99 285 99q204 0 330 -121v59q0 304 -288 304q-154 0 -285 -71l-71 130q170 104 362 104q452 0 452 -491v-557h-170v110q-126 -134 -330 -134q-173 0 -285 99q-108 96 -108 235zM232 310q0 -87 75 -144q73 -55 182 -55q126 0 210.5 55.5 t84.5 143.5q0 86 -86 142q-83 56 -209 56q-109 0 -182 -56q-75 -56 -75 -142z"/>
<glyph unicode="b" horiz-adv-x="1228" d="M148 0v1432h170v-584q143 200 365 200q194 0 329 -154t135 -382t-135 -382t-329 -154q-222 0 -365 200v-176h-170zM318 512q0 -167 95 -271.5t235 -104.5t234.5 105t94.5 271q0 161 -94.5 268.5t-234.5 107.5t-235 -104t-95 -272z"/>
<glyph unicode="c" horiz-adv-x="995" d="M80 512q0 221 138.5 378.5t347.5 157.5q220 0 370 -182l-109 -102q-123 128 -260 128q-142 0 -232 -108t-90 -272t90 -272t232 -108q137 0 260 128l109 -102q-150 -182 -370 -182q-209 0 -347.5 157.5t-138.5 378.5z"/>
<glyph unicode="d" horiz-adv-x="1228" d="M81 512q0 228 135 382t329 154q222 0 365 -200v584h170v-1432h-170v176q-143 -200 -365 -200q-194 0 -329 154t-135 382zM251 512q0 -166 94.5 -271t234.5 -105t235 104.5t95 271.5q0 168 -95 272t-235 104t-234.5 -107.5t-94.5 -268.5z"/>
<glyph unicode="e" horiz-adv-x="1073" d="M81 512q0 229 133 382q132 154 326 154q204 0 341 -177q118 -151 118 -446h-745q16 -123 81 -194q85 -95 222 -95q147 0 314 137l97 -121q-191 -176 -411 -176q-211 0 -343.5 149.5t-132.5 386.5zM251 569h566q-11 160 -89 242.5t-188 82.5q-122 0 -206 -102 q-71 -86 -83 -223z"/>
<glyph unicode="f" horiz-adv-x="695" d="M59 882v142h146v85q0 155 72.5 243.5t205.5 88.5q85 0 176 -29v-146q-66 14 -136 14q-71 0 -109.5 -39t-38.5 -137v-80h284v-142h-284v-882h-170v882h-146z"/>
<glyph unicode="g" d="M83 539q0 216 135 362.5t329 146.5q222 0 365 -190v166h170v-890q0 -264 -138 -415t-377 -151q-234 0 -437 143l81 130q178 -113 356 -113q170 0 257.5 101.5t87.5 304.5v85q-145 -190 -365 -190q-194 0 -329 146.5t-135 363.5zM253 540q0 -151 94.5 -252.5t234.5 -101.5 t235 97.5t95 256.5q0 157 -95 255t-235 98t-234.5 -98.5t-94.5 -254.5z"/>
<glyph unicode="h" horiz-adv-x="1167" d="M148 0v1432h170v-551q114 167 324 167q160 0 273.5 -114.5t113.5 -307.5v-626h-170v588q0 151 -74.5 225.5t-196.5 74.5q-112 0 -191 -79q-79 -90 -79 -230v-579h-170z"/>
<glyph unicode="i" horiz-adv-x="466" d="M148 0v1024h170v-1024h-170zM148 1186v246h170v-246h-170z"/>
<glyph unicode="j" horiz-adv-x="466" d="M-61 -248q38 -9 81 -9q62 0 95 33.5t33 132.5v1115h170v-1110q0 -165 -62.5 -248.5t-185.5 -83.5q-71 0 -131 16v154zM148 1186v246h170v-246h-170z"/>
<glyph unicode="k" horiz-adv-x="1050" d="M148 0v1432h169v-938l454 530h225l-373 -407l412 -617h-203l-327 489l-188 -205v-284h-169z"/>
<glyph unicode="l" horiz-adv-x="474" d="M152 0v1432h170v-1432h-170z"/>
<glyph unicode="m" horiz-adv-x="1757" d="M148 0v1024h170v-123q107 147 293 147q200 0 311 -183q118 183 321 183q155 0 265 -110t110 -292v-646h-170v621q0 138 -68 202.5t-172 64.5q-99 0 -169 -70q-71 -71 -71 -224v-594h-170v621q0 138 -68 202.5t-172 64.5q-99 0 -169 -70q-71 -71 -71 -223v-595h-170z"/>
<glyph unicode="n" horiz-adv-x="1167" d="M148 0v1024h170v-143q114 167 324 167q160 0 273.5 -114.5t113.5 -307.5v-626h-170v588q0 151 -74.5 225.5t-196.5 74.5q-112 0 -191 -79q-79 -90 -79 -230v-579h-170z"/>
<glyph unicode="o" horiz-adv-x="1136" d="M80 512q0 228 141.5 382t346.5 154t346.5 -154t141.5 -382t-141.5 -382t-346.5 -154t-346.5 154t-141.5 382zM250 511q0 -161 91.5 -268t226.5 -107q134 0 226 103t92 272q0 167 -92 270.5t-226 103.5q-135 0 -226.5 -104t-91.5 -270z"/>
<glyph unicode="p" horiz-adv-x="1228" d="M148 -408v1432h170v-176q143 200 365 200q194 0 329 -154t135 -382t-135 -382t-329 -154q-222 0 -365 200v-584h-170zM318 512q0 -168 95 -272t235 -104t234.5 107.5t94.5 268.5q0 166 -94.5 271t-234.5 105t-235 -104.5t-95 -271.5z"/>
<glyph unicode="q" horiz-adv-x="1228" d="M81 512q0 228 135 382t329 154q222 0 365 -200v176h170v-1432h-170v584q-143 -200 -365 -200q-194 0 -329 154t-135 382zM251 512q0 -161 94.5 -268.5t234.5 -107.5t235 104t95 272q0 167 -95 271.5t-235 104.5t-234.5 -105t-94.5 -271z"/>
<glyph unicode="r" horiz-adv-x="729" d="M148 0v1024h170v-252q30 84 84 142q123 134 297 134v-178q-157 0 -269 -116.5t-112 -363.5v-390h-170z"/>
<glyph unicode="s" horiz-adv-x="898" d="M72 105l80 128q166 -104 301 -104q98 0 159 44q52 42 52 109q0 55 -60 97q-55 37 -182 78q-137 43 -204 89q-123 83 -123 223q0 116 105 199q102 80 253 80q169 0 322 -102l-77 -124q-130 74 -245 74q-84 0 -139 -39q-49 -35 -49 -88q0 -51 41 -82q49 -39 169 -75 q161 -49 246 -115q113 -85 113 -215q0 -132 -110 -220q-105 -86 -271 -86q-193 0 -381 129z"/>
<glyph unicode="t" horiz-adv-x="708" d="M48 875v149h146v298h170v-298h284v-149h-284v-577q0 -80 38.5 -113t109.5 -33q70 0 136 14v-146q-91 -29 -183 -29q-133 0 -202 78.5t-69 223.5v582h-146z"/>
<glyph unicode="u" horiz-adv-x="1167" d="M138 398v626h170v-588q0 -151 74.5 -225.5t196.5 -74.5q112 0 191 79q79 90 79 230v579h170v-1024h-170v143q-114 -167 -324 -167q-160 0 -273.5 114.5t-113.5 307.5z"/>
<glyph unicode="v" horiz-adv-x="976" d="M8 1024h182l298 -749l299 749h181l-424 -1024h-112z"/>
<glyph unicode="w" horiz-adv-x="1461" d="M12 1024h168l246 -755l245 755h119l245 -755l246 755h168l-360 -1024h-117l-241 757l-242 -757h-117z"/>
<glyph unicode="x" horiz-adv-x="975" d="M36 0l362 524l-349 500h195l244 -365l243 365h191l-346 -500l367 -524h-195l-260 390l-261 -390h-191z"/>
<glyph unicode="y" horiz-adv-x="993" d="M8 1024h182l306 -770l308 770h181l-475 -1146q-68 -162 -143.5 -229t-182.5 -67q-70 0 -144 34v151q57 -24 108 -24q73 0 117.5 40t91.5 154l48 117z"/>
<glyph unicode="z" horiz-adv-x="918" d="M76 0v110l524 756h-509v158h738v-111l-524 -756h533v-157h-762z"/>
<glyph unicode="{" horiz-adv-x="747" d="M41 432v167q126 0 171 79q40 68 40 239q0 273 68 397q86 159 310 159h59v-151h-34q-146 0 -194 -97q-41 -80 -41 -328q0 -287 -156 -381q156 -95 156 -382q0 -248 41 -328q48 -97 194 -97h34v-151h-59q-224 0 -310 159q-68 124 -68 397q0 171 -40 239q-45 79 -171 79z "/>
<glyph unicode="|" horiz-adv-x="470" d="M157 -498v2027h156v-2027h-156z"/>
<glyph unicode="}" horiz-adv-x="747" d="M58 -291h34q146 0 194 97q41 80 41 328q0 287 156 382q-156 94 -156 381q0 248 -41 328q-48 97 -194 97h-34v151h59q224 0 310 -159q68 -124 68 -397q0 -171 40 -239q45 -79 171 -79v-167q-126 0 -171 -79q-40 -68 -40 -239q0 -273 -68 -397q-86 -159 -310 -159h-59v151z "/>
<glyph unicode="~" horiz-adv-x="1122" d="M124 565q78 230 282 230q96 0 180 -74.5t147 -74.5q99 0 141 136l130 -38q-79 -231 -280 -231q-96 0 -181 74.5t-145 74.5q-102 0 -147 -135z"/>
<glyph unicode="¡" horiz-adv-x="460" d="M133 801v223h196v-223h-196zM144 -408l15 1067h142l15 -1067h-172z"/>
<glyph unicode="¢" horiz-adv-x="1038" d="M98 512q0 221 139 379q112 127 271 151v136h130v-133q185 -20 316 -179l-109 -102q-99 103 -207 123v-750q108 20 207 123l109 -102q-131 -159 -316 -179v-131h-130v134q-159 24 -271 152q-139 157 -139 378zM263 512q0 -164 90 -272q64 -77 155 -99v742 q-91 -22 -155 -99q-90 -108 -90 -272z"/>
<glyph unicode="£" horiz-adv-x="1252" d="M85 601v150h142q-45 119 -45 231q0 210 153 343t382 133q243 0 421 -126l-89 -133q-144 96 -340 96q-172 0 -262 -94.5t-90 -211.5q0 -102 60 -238h604v-150h-541q30 -94 30 -182q0 -144 -100 -257h750v-162h-1001v126q40 22 84 72q88 96 88 221q0 78 -39 182h-207z"/>
<glyph unicode="¤" horiz-adv-x="1355" d="M118 1162l112 112l150 -150q127 94 294 94q172 0 301 -95l151 151l112 -112l-151 -151q94 -127 94 -296t-97 -296l150 -150l-112 -112l-150 151q-128 -93 -298 -93q-164 0 -291 91l-149 -149l-111 112l147 147q-99 129 -99 299t96 298zM332 716q0 -145 99.5 -248 t239.5 -103q146 0 248 103t102 248q0 146 -102 250t-248 104q-140 0 -239.5 -104t-99.5 -250z"/>
<glyph unicode="¥" horiz-adv-x="1198" d="M72 1432h193l337 -698l334 698h192l-372 -745h310v-141h-380v-146h380v-141h-380v-259h-172v259h-381v141h381v146h-381v141h312z"/>
<glyph unicode="¦" horiz-adv-x="496" d="M170 297h156v-795h-156v795zM170 734v795h156v-795h-156z"/>
<glyph unicode="§" horiz-adv-x="1055" d="M91 558q0 171 228 270q-180 107 -180 290q0 139 112 238q114 102 277 102q198 0 352 -112l-79 -114q-123 78 -273 78q-94 0 -154 -55q-61 -54 -61 -137q0 -69 45 -115q54 -56 187 -95q437 -133 437 -394q0 -183 -213 -266q164 -119 164 -294q0 -147 -116 -252 q-121 -110 -305 -110q-221 0 -404 143l83 116q158 -109 321 -109q110 0 177 58q69 58 69 154q0 82 -59 138q-63 59 -212 107q-190 61 -278 127q-118 91 -118 232zM263 566q0 -93 109 -157q102 -60 234 -60q97 0 153 45t56 118q0 105 -111 171q-93 56 -205 56 q-111 0 -176 -50q-60 -48 -60 -123z"/>
<glyph unicode="¨" horiz-adv-x="714" d="M100 1209v173h171v-173h-171zM443 1209v173h171v-173h-171z"/>
<glyph unicode="©" horiz-adv-x="1673" d="M93 715q0 308 217.5 525.5t526.5 217.5q308 0 525.5 -217.5t217.5 -525.5q0 -309 -217.5 -526.5t-525.5 -217.5q-309 0 -526.5 217.5t-217.5 526.5zM214 716q0 -270 178.5 -448.5t445.5 -178.5q264 0 442.5 172.5t178.5 454.5q0 278 -178.5 451t-442.5 173 q-267 0 -445.5 -174t-178.5 -450zM406 716q0 191 129.5 323t321.5 132q188 0 333 -150l-79 -78q-129 116 -254 116q-141 0 -234 -100.5t-93 -242.5q0 -144 93 -243.5t234 -99.5q126 0 252 116l80 -79q-144 -151 -332 -151q-192 0 -321.5 132.5t-129.5 324.5z"/>
<glyph unicode="ª" horiz-adv-x="828" d="M96 983q0 96 71 162q73 68 186 68q134 0 216 -84v23q1 194 -188 194q-105 0 -193 -52l-47 88q114 73 250 73q301 0 301 -321v-366h-123v82q-82 -97 -216 -97q-113 0 -186 68q-71 66 -71 162zM219 983q0 -60 47 -100q47 -38 116 -38q79 0 133 38q54 40 54 100t-54 99 t-133 39q-69 0 -116 -39q-47 -40 -47 -99z"/>
<glyph unicode="«" horiz-adv-x="1067" d="M86 564l247 279h184l-247 -279l247 -279h-184zM496 564l247 279h184l-247 -279l247 -279h-184z"/>
<glyph unicode="¬" horiz-adv-x="1250" d="M135 625v148h968v-549h-158v401h-810z"/>
<glyph unicode="­" horiz-adv-x="837" d="M129 483v161h579v-161h-579z"/>
<glyph unicode="®" horiz-adv-x="1673" d="M93 715q0 308 217.5 525.5t526.5 217.5q308 0 525.5 -217.5t217.5 -525.5q0 -309 -217.5 -526.5t-525.5 -217.5q-309 0 -526.5 217.5t-217.5 526.5zM214 716q0 -270 178.5 -448.5t445.5 -178.5q264 0 442.5 172.5t178.5 454.5q0 278 -178.5 451t-442.5 173 q-267 0 -445.5 -174t-178.5 -450zM533 268v910h330q152 0 244 -87.5t92 -216.5t-92 -217q-41 -39 -93 -60l222 -329h-145l-201 302h-238v-302h-119zM652 682h211q108 0 162 55.5t54 136.5q0 82 -54 137.5t-162 55.5h-211v-385z"/>
<glyph unicode="¯" horiz-adv-x="862" d="M100 1224v143h662v-143h-662z"/>
<glyph unicode="°" horiz-adv-x="783" d="M96 1163q0 123 86 209t208 86q125 0 211 -86t86 -209t-86 -209.5t-211 -86.5q-122 0 -208 86.5t-86 209.5zM222 1163q0 -67 46.5 -117.5t121.5 -50.5q78 0 124 51t46 117q0 68 -46 118.5t-124 50.5q-75 0 -121.5 -51t-46.5 -118z"/>
<glyph unicode="±" horiz-adv-x="1209" d="M124 -30v161h961v-161h-961zM124 563v161h400v320h161v-320h400v-161h-400v-320h-161v320h-400z"/>
<glyph unicode="²" horiz-adv-x="830" d="M114 558v97l370 393q71 76 71 144q0 63 -36 98.5t-106 35.5q-80 0 -215 -96l-68 96q159 122 287 122t199.5 -71t71.5 -185q0 -116 -126 -246l-249 -264h387v-124h-586z"/>
<glyph unicode="³" horiz-adv-x="817" d="M102 630l60 103q121 -65 221 -65q98 0 149.5 39t51.5 101q0 57 -62.5 97.5t-205.5 40.5v132q133 0 185.5 36t52.5 86q0 57 -45 91.5t-126 34.5q-97 0 -215 -54l-49 106q130 70 264 70q132 0 218.5 -70t86.5 -181q0 -122 -135 -182q162 -66 162 -203q0 -119 -92.5 -193 t-239.5 -74q-140 0 -281 85z"/>
<glyph unicode="´" horiz-adv-x="517" d="M100 1203l126 229h191l-187 -229h-130z"/>
<glyph unicode="µ" horiz-adv-x="1150" d="M155 -408v1431h170v-587q0 -151 74.5 -225.5t196.5 -74.5q112 0 191 79q78 89 79 229v579h170v-1024h-170v140q-103 -163 -294 -163q-142 0 -247 117v-501h-170z"/>
<glyph unicode="¶" horiz-adv-x="1239" d="M68 956q0 202 144 339t382 137h456v-1432h-129v1308h-146v-1308h-129v481h-52q-238 0 -382 136.5t-144 338.5z"/>
<glyph unicode="·" horiz-adv-x="461" d="M129 411v204h203v-204h-203z"/>
<glyph unicode="¸" horiz-adv-x="462" d="M100 -258l138 275h124l-71 -275h-191z"/>
<glyph unicode="¹" horiz-adv-x="521" d="M54 1317l242 115h80v-870h-129v715l-143 -68z"/>
<glyph unicode="º" horiz-adv-x="834" d="M94 1101q0 150 93.5 252t228.5 102q136 0 230 -102t94 -252q0 -151 -94 -253t-230 -102q-135 0 -228.5 102t-93.5 253zM219 1101q0 -105 55 -174.5t142 -69.5q88 0 143.5 67t55.5 177q0 108 -55.5 175.5t-143.5 67.5q-87 0 -142 -68t-55 -175z"/>
<glyph unicode="»" horiz-adv-x="1067" d="M140 285l247 279l-247 279h184l247 -279l-247 -279h-184zM550 285l247 279l-247 279h184l247 -279l-247 -279h-184z"/>
<glyph unicode="¼" horiz-adv-x="1603" d="M63 1317l242 115h80v-870h-129v715l-143 -68zM254 0l819 1432h151l-820 -1432h-150zM839 194v83l473 593h96v-562h118v-114h-118v-194h-129v194h-440zM1002 308h277v348z"/>
<glyph unicode="½" horiz-adv-x="1637" d="M63 1317l242 115h80v-870h-129v715l-143 -68zM254 0l819 1432h151l-820 -1432h-150zM961 -4v97l370 393q71 76 71 144q0 63 -36 98.5t-106 35.5q-80 0 -215 -96l-68 96q159 122 287 122t199.5 -71t71.5 -185q0 -116 -126 -246l-249 -264h387v-124h-586z"/>
<glyph unicode="¾" horiz-adv-x="1804" d="M78 630l60 103q121 -65 221 -65q98 0 149.5 39t51.5 101q0 57 -62.5 97.5t-205.5 40.5v132q133 0 185.5 36t52.5 86q0 57 -45 91.5t-126 34.5q-97 0 -215 -54l-49 106q130 70 264 70q132 0 218.5 -70t86.5 -181q0 -122 -135 -182q162 -66 162 -203q0 -119 -92.5 -193 t-239.5 -74q-140 0 -281 85zM463 0l819 1432h151l-820 -1432h-150zM1048 194v83l473 593h96v-562h118v-114h-118v-194h-129v194h-440zM1211 308h277v348z"/>
<glyph unicode="¿" horiz-adv-x="1063" d="M76 -25q0 124 68 219q43 61 150 144q116 91 154 136q70 86 70 187h141q0 -129 -63 -229q-43 -67 -140 -146q-111 -94 -142 -129q-65 -81 -65 -182q0 -118 87 -183t223 -65q174 0 358 141l93 -125q-213 -177 -451 -177q-207 0 -345 115q-138 113 -138 294zM490 802v222 h195v-222h-195z"/>
<glyph unicode="À" d="M6 0l549 1432h119l550 -1432h-186l-104 280h-639l-103 -280h-186zM355 444h519l-260 702zM380 1782h191l126 -229h-130z"/>
<glyph unicode="Á" d="M6 0l549 1432h119l550 -1432h-186l-104 280h-639l-103 -280h-186zM355 444h519l-260 702zM532 1553l126 229h191l-187 -229h-130z"/>
<glyph unicode="Â" d="M6 0l549 1432h119l550 -1432h-186l-104 280h-639l-103 -280h-186zM355 444h519l-260 702zM355 1553l189 229h140l189 -229h-130l-129 139l-129 -139h-130z"/>
<glyph unicode="Ã" d="M6 0l549 1432h119l550 -1432h-186l-104 280h-639l-103 -280h-186zM299 1566q19 83 69 131t125 48q68 0 136 -52t99 -52q34 0 52 21.5t32 68.5l112 -28q-20 -83 -69 -130.5t-127 -47.5q-68 0 -135.5 51.5t-99.5 51.5q-33 0 -51 -21t-32 -68zM355 444h519l-260 702z"/>
<glyph unicode="Ä" d="M6 0l549 1432h119l550 -1432h-186l-104 280h-639l-103 -280h-186zM355 444h519l-260 702zM358 1559v173h171v-173h-171zM701 1559v173h171v-173h-171z"/>
<glyph unicode="Å" d="M6 0l518 1352q-43 17 -79 53q-70 69 -70 168q0 100 70 169.5t169 69.5q101 0 171 -69.5t70 -169.5q0 -99 -70 -168q-36 -36 -80 -54l519 -1351h-186l-104 280h-639l-103 -280h-186zM355 444h519l-260 702zM474 1573q0 -59 40.5 -100t98.5 -41q60 0 101.5 41t41.5 100 t-41.5 100.5t-101.5 41.5q-58 0 -98.5 -41.5t-40.5 -100.5z"/>
<glyph unicode="Æ" horiz-adv-x="1983" d="M-14 0l981 1432h918v-161h-746v-466h658v-160h-658v-482h754v-163h-926v280h-582l-187 -280h-212zM494 444h473v710z"/>
<glyph unicode="Ç" horiz-adv-x="1255" d="M96 715q0 321 175.5 532t446.5 211q272 0 469 -239l-115 -106q-164 177 -354 177q-197 0 -322 -163t-125 -412q0 -250 125 -413t322 -163q190 0 354 177l115 -106q-168 -204 -390 -234l-58 -234h-191l117 231q-235 19 -393 209q-176 211 -176 533z"/>
<glyph unicode="È" horiz-adv-x="1198" d="M182 0v1432h918v-161h-746v-466h658v-160h-658v-482h754v-163h-926zM411 1782h191l126 -229h-130z"/>
<glyph unicode="É" horiz-adv-x="1198" d="M182 0v1432h918v-161h-746v-466h658v-160h-658v-482h754v-163h-926zM562 1553l126 229h191l-187 -229h-130z"/>
<glyph unicode="Ê" horiz-adv-x="1198" d="M182 0v1432h918v-161h-746v-466h658v-160h-658v-482h754v-163h-926zM398 1553l189 229h140l189 -229h-130l-129 139l-129 -139h-130z"/>
<glyph unicode="Ë" horiz-adv-x="1198" d="M182 0v1432h918v-161h-746v-466h658v-160h-658v-482h754v-163h-926zM394 1559v173h171v-173h-171zM737 1559v173h171v-173h-171z"/>
<glyph unicode="Ì" horiz-adv-x="536" d="M19 1782h191l126 -229h-130zM182 0v1432h172v-1432h-172z"/>
<glyph unicode="Í" horiz-adv-x="536" d="M182 0v1432h172v-1432h-172zM199 1553l126 229h191l-187 -229h-130z"/>
<glyph unicode="Î" horiz-adv-x="536" d="M9 1553l189 229h140l189 -229h-130l-129 139l-129 -139h-130zM182 0v1432h172v-1432h-172z"/>
<glyph unicode="Ï" horiz-adv-x="536" d="M11 1559v173h171v-173h-171zM182 0v1432h172v-1432h-172zM354 1559v173h171v-173h-171z"/>
<glyph unicode="Ð" horiz-adv-x="1326" d="M29 667v136h155v629h361q331 0 509 -210t178 -506t-178 -506t-509 -210h-361v667h-155zM357 161h188q257 0 385.5 162t128.5 393t-128.5 394t-385.5 163h-188v-470h393v-136h-393v-506z"/>
<glyph unicode="Ñ" horiz-adv-x="1365" d="M182 0v1432h133l697 -1084v1084h171v-1432h-132l-697 1085v-1085h-172zM386 1570q17 76 65.5 122.5t120.5 46.5q66 0 134 -52t101 -52q37 0 56.5 23t32.5 66l100 -25q-18 -76 -65.5 -122t-123.5 -46q-66 0 -133.5 51.5t-101.5 51.5q-35 0 -54.5 -22.5t-32.5 -65.5z"/>
<glyph unicode="Ò" horiz-adv-x="1445" d="M92 715q0 307 183 525t447 218q265 0 448 -218t183 -525q0 -308 -183 -526t-448 -218q-264 0 -447 218t-183 526zM265 715q0 -247 129 -412.5t329 -165.5q198 0 327.5 160t129.5 418q0 256 -129.5 416t-327.5 160q-199 0 -328.5 -160.5t-129.5 -415.5zM488 1782h191 l126 -229h-130z"/>
<glyph unicode="Ó" horiz-adv-x="1445" d="M92 715q0 307 183 525t447 218q265 0 448 -218t183 -525q0 -308 -183 -526t-448 -218q-264 0 -447 218t-183 526zM265 715q0 -247 129 -412.5t329 -165.5q198 0 327.5 160t129.5 418q0 256 -129.5 416t-327.5 160q-199 0 -328.5 -160.5t-129.5 -415.5zM639 1553l126 229 h191l-187 -229h-130z"/>
<glyph unicode="Ô" horiz-adv-x="1445" d="M92 715q0 307 183 525t447 218q265 0 448 -218t183 -525q0 -308 -183 -526t-448 -218q-264 0 -447 218t-183 526zM265 715q0 -247 129 -412.5t329 -165.5q198 0 327.5 160t129.5 418q0 256 -129.5 416t-327.5 160q-199 0 -328.5 -160.5t-129.5 -415.5zM464 1553l189 229 h140l189 -229h-130l-129 139l-129 -139h-130z"/>
<glyph unicode="Õ" horiz-adv-x="1445" d="M92 715q0 307 183 525t447 218q265 0 448 -218t183 -525q0 -308 -183 -526t-448 -218q-264 0 -447 218t-183 526zM265 715q0 -247 129 -412.5t329 -165.5q198 0 327.5 160t129.5 418q0 256 -129.5 416t-327.5 160q-199 0 -328.5 -160.5t-129.5 -415.5zM418 1566 q19 83 69 131t125 48q68 0 136 -52t99 -52q34 0 52 21.5t32 68.5l112 -28q-20 -83 -69 -130.5t-127 -47.5q-68 0 -135.5 51.5t-99.5 51.5q-33 0 -51 -21t-32 -68z"/>
<glyph unicode="Ö" horiz-adv-x="1445" d="M92 715q0 307 183 525t447 218q265 0 448 -218t183 -525q0 -308 -183 -526t-448 -218q-264 0 -447 218t-183 526zM265 715q0 -247 129 -412.5t329 -165.5q198 0 327.5 160t129.5 418q0 256 -129.5 416t-327.5 160q-199 0 -328.5 -160.5t-129.5 -415.5zM466 1559v173h171 v-173h-171zM809 1559v173h171v-173h-171z"/>
<glyph unicode="×" horiz-adv-x="1062" d="M106 249l311 312l-311 311l114 114l311 -311l312 311l113 -114l-311 -311l311 -312l-113 -114l-312 311l-311 -311z"/>
<glyph unicode="Ø" horiz-adv-x="1447" d="M39 41l185 217q-131 196 -131 457q0 307 183 525t447 218q226 0 392 -158l168 196l123 -105l-185 -217q133 -197 133 -459q0 -308 -183 -526t-448 -218q-227 0 -394 161l-167 -195zM266 715q0 -185 72 -324l672 786q-119 114 -286 114q-199 0 -328.5 -160.5 t-129.5 -415.5zM435 257q119 -120 289 -120q198 0 327.5 160t129.5 418q0 191 -72 329z"/>
<glyph unicode="Ù" horiz-adv-x="1457" d="M169 561v871h177v-883q0 -188 112 -300t270 -112q156 0 269 112t113 300v883h178v-871q0 -262 -164.5 -426t-395.5 -164q-232 0 -395.5 164t-163.5 426zM510 1782h191l126 -229h-130z"/>
<glyph unicode="Ú" horiz-adv-x="1457" d="M169 561v871h177v-883q0 -188 112 -300t270 -112q156 0 269 112t113 300v883h178v-871q0 -262 -164.5 -426t-395.5 -164q-232 0 -395.5 164t-163.5 426zM629 1553l126 229h191l-187 -229h-130z"/>
<glyph unicode="Û" horiz-adv-x="1457" d="M169 561v871h177v-883q0 -188 112 -300t270 -112q156 0 269 112t113 300v883h178v-871q0 -262 -164.5 -426t-395.5 -164q-232 0 -395.5 164t-163.5 426zM468 1553l189 229h140l189 -229h-130l-129 139l-129 -139h-130z"/>
<glyph unicode="Ü" horiz-adv-x="1457" d="M169 561v871h177v-883q0 -188 112 -300t270 -112q156 0 269 112t113 300v883h178v-871q0 -262 -164.5 -426t-395.5 -164q-232 0 -395.5 164t-163.5 426zM471 1559v173h171v-173h-171zM814 1559v173h171v-173h-171z"/>
<glyph unicode="Ý" horiz-adv-x="1032" d="M-12 1432h193l337 -698l334 698h192l-442 -884v-548h-172v548zM422 1553l126 229h191l-187 -229h-130z"/>
<glyph unicode="Þ" horiz-adv-x="1187" d="M182 0v1432h172v-225h253q238 0 382 -137t144 -339t-144 -338.5t-382 -136.5h-253v-256h-172zM354 416h253q176 0 265 91t89 224q0 136 -89 226.5t-265 90.5h-253v-632z"/>
<glyph unicode="ß" horiz-adv-x="1135" d="M148 0v1033q0 214 111 336.5t323 122.5q202 0 319 -123.5t117 -286.5q0 -212 -187 -316q219 -107 219 -344q0 -172 -124 -299q-123 -123 -341 -123h-90v159h90q137 0 216 72.5t79 190.5q0 119 -79 190.5t-216 71.5h-90v157h84q125 0 196.5 63.5t71.5 177.5q0 111 -73 182 t-192 71q-122 0 -193 -76t-71 -226v-1033h-170z"/>
<glyph unicode="à" horiz-adv-x="1092" d="M62 310q0 -139 108 -235q112 -99 285 -99q204 0 330 134v-110h170v557q0 491 -452 491q-192 0 -362 -104l71 -130q131 71 285 71q288 0 288 -304v-59q-126 121 -330 121q-173 0 -285 -99q-108 -96 -108 -234zM232 310q0 86 75 142q73 56 182 56q126 0 209 -56 q86 -56 86 -142q0 -88 -84.5 -143.5t-210.5 -55.5q-109 0 -182 55q-75 57 -75 144zM293 1432h191l126 -229h-130z"/>
<glyph unicode="á" horiz-adv-x="1092" d="M62 310q0 -139 108 -235q112 -99 285 -99q204 0 330 134v-110h170v557q0 491 -452 491q-192 0 -362 -104l71 -130q131 71 285 71q288 0 288 -304v-59q-126 121 -330 121q-173 0 -285 -99q-108 -96 -108 -234zM232 310q0 86 75 142q73 56 182 56q126 0 209 -56 q86 -56 86 -142q0 -88 -84.5 -143.5t-210.5 -55.5q-109 0 -182 55q-75 57 -75 144zM408 1203l126 229h191l-187 -229h-130z"/>
<glyph unicode="â" horiz-adv-x="1092" d="M62 310q0 -139 108 -235q112 -99 285 -99q204 0 330 134v-110h170v557q0 491 -452 491q-192 0 -362 -104l71 -130q131 71 285 71q288 0 288 -304v-59q-126 121 -330 121q-173 0 -285 -99q-108 -96 -108 -234zM232 310q0 86 75 142q73 56 182 56q126 0 209 -56 q86 -56 86 -142q0 -88 -84.5 -143.5t-210.5 -55.5q-109 0 -182 55q-75 57 -75 144zM254 1203l189 229h140l189 -229h-130l-129 139l-129 -139h-130z"/>
<glyph unicode="ã" horiz-adv-x="1092" d="M62 310q0 -139 108 -235q112 -99 285 -99q204 0 330 134v-110h170v557q0 491 -452 491q-192 0 -362 -104l71 -130q131 71 285 71q288 0 288 -304v-59q-126 121 -330 121q-173 0 -285 -99q-108 -96 -108 -234zM215 1216q19 83 69 131t125 48q68 0 136 -52t99 -52 q34 0 52 21.5t32 68.5l112 -28q-20 -83 -69 -130.5t-127 -47.5q-68 0 -135.5 51.5t-99.5 51.5q-33 0 -51 -21t-32 -68zM232 310q0 86 75 142q73 56 182 56q126 0 209 -56q86 -56 86 -142q0 -88 -84.5 -143.5t-210.5 -55.5q-109 0 -182 55q-75 57 -75 144z"/>
<glyph unicode="ä" horiz-adv-x="1092" d="M62 310q0 -139 108 -235q112 -99 285 -99q204 0 330 134v-110h170v557q0 491 -452 491q-192 0 -362 -104l71 -130q131 71 285 71q288 0 288 -304v-59q-126 121 -330 121q-173 0 -285 -99q-108 -96 -108 -234zM232 310q0 86 75 142q73 56 182 56q126 0 209 -56 q86 -56 86 -142q0 -88 -84.5 -143.5t-210.5 -55.5q-109 0 -182 55q-75 57 -75 144zM269 1209v173h171v-173h-171zM612 1209v173h171v-173h-171z"/>
<glyph unicode="å" horiz-adv-x="1092" d="M62 310q0 -139 108 -235q112 -99 285 -99q204 0 330 134v-110h170v557q0 491 -452 491q-192 0 -362 -104l71 -130q131 71 285 71q288 0 288 -304v-59q-126 121 -330 121q-173 0 -285 -99q-108 -96 -108 -234zM232 310q0 86 75 142q73 56 182 56q126 0 209 -56 q86 -56 86 -142q0 -88 -84.5 -143.5t-210.5 -55.5q-109 0 -182 55q-75 57 -75 144zM284 1378q0 100 70 169.5t169 69.5q101 0 171 -69.5t70 -169.5q0 -99 -70 -168.5t-171 -69.5q-99 0 -169 69.5t-70 168.5zM383 1378q0 -59 40.5 -100t98.5 -41q60 0 101.5 41t41.5 100 t-41.5 100.5t-101.5 41.5q-58 0 -98.5 -41.5t-40.5 -100.5z"/>
<glyph unicode="æ" horiz-adv-x="1779" d="M62 310q0 138 108 234q112 99 285 99q204 0 330 -121v59q0 304 -288 304q-154 0 -285 -71l-71 130q170 104 362 104q292 0 385 -248q127 248 358 248q204 0 341 -177q118 -151 118 -456h-743q17 -116 79 -184q85 -95 222 -95q147 0 314 137l97 -121q-191 -176 -411 -176 q-194 0 -308 171v-147h-170v110q-126 -134 -330 -134q-173 0 -285 99q-108 96 -108 235zM232 310q0 -87 75 -144q73 -55 182 -55q126 0 210.5 55.5t84.5 143.5q0 86 -86 142q-83 56 -209 56q-109 0 -182 -56q-75 -56 -75 -142zM957 569h566q-11 160 -89 242.5t-188 82.5 q-122 0 -206 -102q-71 -86 -83 -223z"/>
<glyph unicode="ç" horiz-adv-x="998" d="M81 512q0 221 138.5 378.5t347.5 157.5q220 0 370 -182l-109 -102q-123 128 -260 128q-142 0 -232 -108t-90 -272t90 -272t232 -108q137 0 260 128l109 -102q-121 -146 -286 -175l-60 -241h-191l119 236q-177 16 -299 156q-139 157 -139 378z"/>
<glyph unicode="è" horiz-adv-x="1073" d="M81 512q0 229 133 382q132 154 326 154q204 0 341 -177q118 -151 118 -446h-745q16 -123 81 -194q85 -95 222 -95q147 0 314 137l97 -121q-191 -176 -411 -176q-211 0 -343.5 149.5t-132.5 386.5zM251 569h566q-11 160 -89 242.5t-188 82.5q-122 0 -206 -102 q-71 -86 -83 -223zM318 1432h191l126 -229h-130z"/>
<glyph unicode="é" horiz-adv-x="1073" d="M81 512q0 229 133 382q132 154 326 154q204 0 341 -177q118 -151 118 -446h-745q16 -123 81 -194q85 -95 222 -95q147 0 314 137l97 -121q-191 -176 -411 -176q-211 0 -343.5 149.5t-132.5 386.5zM251 569h566q-11 160 -89 242.5t-188 82.5q-122 0 -206 -102 q-71 -86 -83 -223zM449 1203l126 229h191l-187 -229h-130z"/>
<glyph unicode="ê" horiz-adv-x="1073" d="M81 512q0 229 133 382q132 154 326 154q204 0 341 -177q118 -151 118 -446h-745q16 -123 81 -194q85 -95 222 -95q147 0 314 137l97 -121q-191 -176 -411 -176q-211 0 -343.5 149.5t-132.5 386.5zM251 569h566q-11 160 -89 242.5t-188 82.5q-122 0 -206 -102 q-71 -86 -83 -223zM283 1203l189 229h140l189 -229h-130l-129 139l-129 -139h-130z"/>
<glyph unicode="ë" horiz-adv-x="1073" d="M81 512q0 229 133 382q132 154 326 154q204 0 341 -177q118 -151 118 -446h-745q16 -123 81 -194q85 -95 222 -95q147 0 314 137l97 -121q-191 -176 -411 -176q-211 0 -343.5 149.5t-132.5 386.5zM251 569h566q-11 160 -89 242.5t-188 82.5q-122 0 -206 -102 q-71 -86 -83 -223zM283 1209v173h171v-173h-171zM627 1209v173h171v-173h-171z"/>
<glyph unicode="ì" horiz-adv-x="466" d="M-13 1432h191l126 -229h-130zM148 0v1024h170v-1024h-170z"/>
<glyph unicode="í" horiz-adv-x="466" d="M148 0v1024h170v-1024h-170zM162 1203l126 229h191l-187 -229h-130z"/>
<glyph unicode="î" horiz-adv-x="466" d="M-26 1203l189 229h140l189 -229h-130l-129 139l-129 -139h-130zM148 0v1024h170v-1024h-170z"/>
<glyph unicode="ï" horiz-adv-x="466" d="M-24 1209v173h171v-173h-171zM148 0v1024h170v-1024h-170zM319 1209v173h171v-173h-171z"/>
<glyph unicode="ð" horiz-adv-x="1155" d="M81 496q0 221 135 371q134 150 315 150q125 0 244 -89q-100 132 -218 224l-276 -97l-36 101l210 74q-88 59 -156 90l67 128q120 -53 260 -160l242 85l35 -101l-181 -63q349 -313 349 -713q0 -220 -144 -370q-143 -150 -352 -150q-224 0 -359 150t-135 370zM251 496 q0 -153 92 -256q94 -101 232 -101t232 98t94 259q0 160 -94 260q-94 98 -232 98t-232 -99q-92 -100 -92 -259z"/>
<glyph unicode="ñ" horiz-adv-x="1167" d="M148 0h170v579q0 140 79 230q79 79 191 79q122 0 196.5 -74.5t74.5 -225.5v-588h170v626q0 193 -113.5 307.5t-273.5 114.5q-210 0 -324 -167v143h-170v-1024zM279 1216q19 83 69 131t125 48q68 0 136 -52t99 -52q34 0 52 21.5t32 68.5l112 -28q-20 -83 -69 -130.5 t-127 -47.5q-68 0 -135.5 51.5t-99.5 51.5q-33 0 -51 -21t-32 -68z"/>
<glyph unicode="ò" horiz-adv-x="1136" d="M80 512q0 228 141.5 382t346.5 154t346.5 -154t141.5 -382t-141.5 -382t-346.5 -154t-346.5 154t-141.5 382zM250 511q0 -161 91.5 -268t226.5 -107q134 0 226 103t92 272q0 167 -92 270.5t-226 103.5q-135 0 -226.5 -104t-91.5 -270zM340 1432h191l126 -229h-130z"/>
<glyph unicode="ó" horiz-adv-x="1136" d="M80 512q0 228 141.5 382t346.5 154t346.5 -154t141.5 -382t-141.5 -382t-346.5 -154t-346.5 154t-141.5 382zM250 511q0 -161 91.5 -268t226.5 -107q134 0 226 103t92 272q0 167 -92 270.5t-226 103.5q-135 0 -226.5 -104t-91.5 -270zM470 1203l126 229h191l-187 -229 h-130z"/>
<glyph unicode="ô" horiz-adv-x="1136" d="M80 512q0 228 141.5 382t346.5 154t346.5 -154t141.5 -382t-141.5 -382t-346.5 -154t-346.5 154t-141.5 382zM250 511q0 -161 91.5 -268t226.5 -107q134 0 226 103t92 272q0 167 -92 270.5t-226 103.5q-135 0 -226.5 -104t-91.5 -270zM305 1203l189 229h140l189 -229 h-130l-129 139l-129 -139h-130z"/>
<glyph unicode="õ" horiz-adv-x="1136" d="M80 512q0 228 141.5 382t346.5 154t346.5 -154t141.5 -382t-141.5 -382t-346.5 -154t-346.5 154t-141.5 382zM245 1216q19 83 69 131t125 48q68 0 136 -52t99 -52q34 0 52 21.5t32 68.5l112 -28q-20 -83 -69 -130.5t-127 -47.5q-68 0 -135.5 51.5t-99.5 51.5 q-33 0 -51 -21t-32 -68zM250 511q0 -161 91.5 -268t226.5 -107q134 0 226 103t92 272q0 167 -92 270.5t-226 103.5q-135 0 -226.5 -104t-91.5 -270z"/>
<glyph unicode="ö" horiz-adv-x="1136" d="M80 512q0 228 141.5 382t346.5 154t346.5 -154t141.5 -382t-141.5 -382t-346.5 -154t-346.5 154t-141.5 382zM250 511q0 -161 91.5 -268t226.5 -107q134 0 226 103t92 272q0 167 -92 270.5t-226 103.5q-135 0 -226.5 -104t-91.5 -270zM305 1209v173h171v-173h-171z M649 1209v173h171v-173h-171z"/>
<glyph unicode="÷" horiz-adv-x="1269" d="M132 480v161h1005v-161h-1005zM539 103v192h191v-192h-191zM539 832v192h191v-192h-191z"/>
<glyph unicode="ø" horiz-adv-x="1143" d="M8 49l158 158q-82 131 -82 305q0 228 141.5 382t346.5 154q182 0 314 -121l149 149l92 -92l-156 -156q89 -135 89 -316q0 -228 -141.5 -382t-346.5 -154q-188 0 -323 130l-149 -149zM254 511q0 -101 36 -180l479 479q-83 75 -197 75q-135 0 -226.5 -104t-91.5 -270z M365 222q86 -86 207 -86q134 0 226 103t92 272q0 112 -41 195z"/>
<glyph unicode="ù" horiz-adv-x="1167" d="M138 398q0 -193 113.5 -307.5t273.5 -114.5q210 0 324 167v-143h170v1024h-170v-579q0 -140 -79 -230q-79 -79 -191 -79q-122 0 -196.5 74.5t-74.5 225.5v588h-170v-626zM355 1432h191l126 -229h-130z"/>
<glyph unicode="ú" horiz-adv-x="1167" d="M138 398q0 -193 113.5 -307.5t273.5 -114.5q210 0 324 167v-143h170v1024h-170v-579q0 -140 -79 -230q-79 -79 -191 -79q-122 0 -196.5 74.5t-74.5 225.5v588h-170v-626zM485 1203l126 229h191l-187 -229h-130z"/>
<glyph unicode="û" horiz-adv-x="1167" d="M138 398q0 -193 113.5 -307.5t273.5 -114.5q210 0 324 167v-143h170v1024h-170v-579q0 -140 -79 -230q-79 -79 -191 -79q-122 0 -196.5 74.5t-74.5 225.5v588h-170v-626zM320 1203l189 229h140l189 -229h-130l-129 139l-129 -139h-130z"/>
<glyph unicode="ü" horiz-adv-x="1167" d="M138 398q0 -193 113.5 -307.5t273.5 -114.5q210 0 324 167v-143h170v1024h-170v-579q0 -140 -79 -230q-79 -79 -191 -79q-122 0 -196.5 74.5t-74.5 225.5v588h-170v-626zM321 1209v173h171v-173h-171zM664 1209v173h171v-173h-171z"/>
<glyph unicode="ý" horiz-adv-x="993" d="M8 1024h182l306 -770l308 770h181l-475 -1146q-68 -162 -143.5 -229t-182.5 -67q-70 0 -144 34v151q57 -24 108 -24q73 0 117.5 40t91.5 154l48 117zM411 1203l126 229h191l-187 -229h-130z"/>
<glyph unicode="þ" horiz-adv-x="1228" d="M148 -408v1840h170v-584q143 200 365 200q194 0 329 -154t135 -382t-135 -382t-329 -154q-222 0 -365 200v-584h-170zM318 512q0 -168 95 -272t235 -104t234.5 107.5t94.5 268.5q0 166 -94.5 271t-234.5 105t-235 -104.5t-95 -271.5z"/>
<glyph unicode="ÿ" horiz-adv-x="993" d="M8 1024h182l306 -770l308 770h181l-475 -1146q-68 -162 -143.5 -229t-182.5 -67q-70 0 -144 34v151q57 -24 108 -24q73 0 117.5 40t91.5 154l48 117zM240 1209v173h171v-173h-171zM583 1209v173h171v-173h-171z"/>
<glyph unicode="Œ" horiz-adv-x="1995" d="M94 716q0 296 178 506t509 210h1116v-161h-745v-466h657v-160h-657v-482h753v-163h-1124q-331 0 -509 210t-178 506zM267 716q0 -231 128.5 -393t385.5 -162h198v1112h-198q-257 0 -385.5 -163t-128.5 -394z"/>
<glyph unicode="œ" horiz-adv-x="1885" d="M80 512q0 228 141.5 382t346.5 154q254 0 405 -250q142 250 380 250q203 0 340 -177q118 -151 118 -454h-752q18 -118 81 -189q87 -97 230 -97q154 0 314 135l93 -117q-187 -173 -407 -173q-256 0 -399 247q-152 -247 -403 -247q-205 0 -346.5 154t-141.5 382zM250 511 q0 -161 91.5 -268t226.5 -107q134 0 226 103t92 272q0 167 -92 270.5t-226 103.5q-135 0 -226.5 -104t-91.5 -270zM1055 566h584q-11 163 -91.5 245t-194.5 82q-126 0 -213 -102q-73 -86 -85 -225z"/>
<glyph unicode="Ÿ" horiz-adv-x="1032" d="M-12 1432h193l337 -698l334 698h192l-442 -884v-548h-172v548zM259 1559v173h171v-173h-171zM602 1559v173h171v-173h-171z"/>
<glyph unicode="ˆ" horiz-adv-x="686" d="M100 1203l166 229h154l166 -229h-130l-113 131l-113 -131h-130z"/>
<glyph unicode="˜" horiz-adv-x="825" d="M100 1216q19 83 69 131t125 48q68 0 136 -52t99 -52q34 0 52 21.5t32 68.5l112 -28q-20 -83 -69 -130.5t-127 -47.5q-68 0 -135.5 51.5t-99.5 51.5q-33 0 -51 -21t-32 -68z"/>
<glyph unicode=" " horiz-adv-x="906"/>
<glyph unicode=" " horiz-adv-x="1812"/>
<glyph unicode=" " horiz-adv-x="906"/>
<glyph unicode=" " horiz-adv-x="1812"/>
<glyph unicode=" " horiz-adv-x="604"/>
<glyph unicode=" " horiz-adv-x="453"/>
<glyph unicode=" " horiz-adv-x="302"/>
<glyph unicode=" " horiz-adv-x="302"/>
<glyph unicode=" " horiz-adv-x="226"/>
<glyph unicode=" " horiz-adv-x="362"/>
<glyph unicode=" " horiz-adv-x="100"/>
<glyph unicode="‐" horiz-adv-x="837" d="M129 483v161h579v-161h-579z"/>
<glyph unicode="‑" horiz-adv-x="837" d="M129 483v161h579v-161h-579z"/>
<glyph unicode="‒" horiz-adv-x="837" d="M129 483v161h579v-161h-579z"/>
<glyph unicode="–" horiz-adv-x="1262" d="M129 483v161h1004v-161h-1004z"/>
<glyph unicode="—" horiz-adv-x="1735" d="M129 483v161h1477v-161h-1477z"/>
<glyph unicode="‘" horiz-adv-x="462" d="M110 945l107 487h137l-65 -487h-179z"/>
<glyph unicode="’" horiz-adv-x="454" d="M120 945l65 487h179l-107 -487h-137z"/>
<glyph unicode="‚" horiz-adv-x="479" d="M98 -303l65 487h179l-107 -487h-137z"/>
<glyph unicode="“" horiz-adv-x="781" d="M110 945l107 487h137l-65 -487h-179zM429 945l107 487h137l-65 -487h-179z"/>
<glyph unicode="”" horiz-adv-x="773" d="M120 945l65 487h179l-107 -487h-137zM439 945l65 487h179l-107 -487h-137z"/>
<glyph unicode="„" horiz-adv-x="798" d="M98 -303l65 487h179l-107 -487h-137zM417 -303l65 487h179l-107 -487h-137z"/>
<glyph unicode="•" horiz-adv-x="800" d="M96 661q0 126 89 215t215 89t215 -89t89 -215q0 -127 -89 -215t-215 -88t-215 88.5t-89 214.5z"/>
<glyph unicode="…" horiz-adv-x="1737" d="M129 0v204h203v-204h-203zM767 0v204h203v-204h-203zM1405 0v204h203v-204h-203z"/>
<glyph unicode=" " horiz-adv-x="362"/>
<glyph unicode="‹" horiz-adv-x="657" d="M86 564l247 279h184l-247 -279l247 -279h-184z"/>
<glyph unicode="›" horiz-adv-x="657" d="M140 285l247 279l-247 279h184l247 -279l-247 -279h-184z"/>
<glyph unicode=" " horiz-adv-x="453"/>
<glyph unicode="€" horiz-adv-x="1449" d="M84 458v141h194q-6 56 -6 116t6 117h-194v141h221q43 155 143 274q175 211 446 211q272 0 469 -239l-115 -106q-164 177 -354 177q-197 0 -322 -163q-53 -69 -84 -154h601v-141h-634q-8 -56 -8 -117t7 -116h635v-141h-601q30 -86 84 -156q125 -163 322 -163 q190 0 354 177l115 -106q-197 -239 -469 -239q-271 0 -446 211q-100 120 -143 276h-221z"/>
<glyph unicode="™" horiz-adv-x="1712" d="M111 1308v124h582v-124h-225v-708h-132v708h-225zM816 600v832h108l262 -404l260 404h109v-832h-133v580l-236 -367l-238 367v-580h-132z"/>
<glyph unicode="" horiz-adv-x="1025" d="M0 0v1025h1025v-1025h-1025z"/>
</font>
</defs>
</svg>
