<?xml version="1.0" encoding="utf-8"?>
<!-- Generator: Adobe Illustrator 16.0.0, SVG Export Plug-In . SVG Version: 6.00 Build 0)  -->
<!DOCTYPE svg PUBLIC "-//W3C//DTD SVG 1.1//EN" "http://www.w3.org/Graphics/SVG/1.1/DTD/svg11.dtd">
<svg version="1.1" id="Layer_1" xmlns="http://www.w3.org/2000/svg" xmlns:xlink="http://www.w3.org/1999/xlink" x="0px" y="0px"
	 width="71.786px" height="43.579px" viewBox="0 0 71.786 43.579" enable-background="new 0 0 71.786 43.579" xml:space="preserve">
<g>
	<defs>
		<rect id="SVGID_1_" y="0" width="71.786" height="43.579"/>
	</defs>
	<clipPath id="SVGID_2_">
		<use xlink:href="#SVGID_1_"  overflow="visible"/>
	</clipPath>
	<path clip-path="url(#SVGID_2_)" fill="#150D47" d="M55.738,12.203c-0.924,0-1.829,0.08-2.711,0.229
		C50.828,5.241,44.016,0,35.945,0c-9.848,0-17.83,7.805-17.83,17.433c0,0.859,0.067,1.704,0.19,2.53
		c-0.473-0.054-5.693-0.09-6.18-0.09C5.429,19.873,0,25.18,0,31.726c0,6.545,5.429,11.853,12.126,11.853h18.209v-13.16l-7.642,0.002
		l13.202-15.167l13.198,15.165l-7.654,0.002l0.001,13.158h14.299c8.864,0,16.047-7.023,16.047-15.688
		C71.785,19.227,64.603,12.203,55.738,12.203"/>
</g>
</svg>
