<?xml version="1.0" encoding="utf-8"?>
<!-- Generator: Adobe Illustrator 16.0.0, SVG Export Plug-In . SVG Version: 6.00 Build 0)  -->
<!DOCTYPE svg PUBLIC "-//W3C//DTD SVG 1.1//EN" "http://www.w3.org/Graphics/SVG/1.1/DTD/svg11.dtd">
<svg version="1.1" id="Layer_1" xmlns="http://www.w3.org/2000/svg" xmlns:xlink="http://www.w3.org/1999/xlink" x="0px" y="0px"
	 width="41.472px" height="57.102px" viewBox="0 0 41.472 57.102" enable-background="new 0 0 41.472 57.102" xml:space="preserve">
<g>
	<defs>
		<rect id="SVGID_1_" y="0" width="41.472" height="57.101"/>
	</defs>
	<clipPath id="SVGID_2_">
		<use xlink:href="#SVGID_1_"  overflow="visible"/>
	</clipPath>
	<path clip-path="url(#SVGID_2_)" fill="#140D46" d="M37.188,57.026c-1.281-0.295-2.479-0.57-3.677-0.846
		c-6.676-1.539-13.35-3.083-20.03-4.606c-0.412-0.094-0.518-0.249-0.518-0.648c0.009-9.646,0.005-19.291,0.004-28.938
		c0-4.736-0.001-9.472,0.01-14.208c0.001-0.44,0.041-0.893,0.151-1.317c0.359-1.379,1.174-1.988,2.594-1.988
		c6.166-0.001,12.333-0.001,18.499-0.001c1.879,0,2.874,0.927,2.943,2.853c0.057,1.584,0.024,3.17,0.024,4.755
		c0.001,10.709,0.001,21.417,0.001,32.125c-0.001,4.021-0.002,8.042-0.002,12.063C37.188,56.497,37.188,56.725,37.188,57.026
		 M14.752,31.037c0,0.463-0.005,0.926,0.001,1.389c0.007,0.539-0.015,1.082,0.046,1.615c0.055,0.484,0.331,0.814,0.88,0.813
		c0.494-0.001,0.841-0.302,0.93-0.844c0.034-0.208,0.035-0.423,0.035-0.635c0.002-1.194,0-2.391-0.004-3.586
		c-0.002-0.501,0.024-1.004-0.024-1.501c-0.072-0.738-0.688-1.127-1.309-0.855c-0.458,0.2-0.545,0.622-0.551,1.059
		C14.745,29.341,14.753,30.189,14.752,31.037"/>
	<path clip-path="url(#SVGID_2_)" fill="#140D46" d="M2.536,57.102H0.002c0-1.16,0-2.294,0-3.428c0-14.579,0-29.158,0-43.737
		c0-1.837-0.008-3.673,0.007-5.51c0.021-2.482,1.87-4.392,4.36-4.406c5.742-0.032,11.485-0.017,17.229-0.016
		c5.2,0,10.401-0.012,15.603,0.018c2.288,0.013,4.16,1.872,4.244,4.156c0.043,1.178,0.021,2.359,0.021,3.538
		c0.002,13.844,0.001,27.688,0.001,41.532c0,2.396,0.001,4.795-0.001,7.191c0,0.208-0.02,0.415-0.031,0.654h-2.161
		c0-1.927,0-3.833,0-5.739c0-9.842,0.001-19.683,0.001-29.525c0.001-4.931-0.006-9.861,0.008-14.792
		c0.003-1.07-0.133-2.082-0.829-2.945c-0.819-1.013-1.892-1.507-3.186-1.507c-7.02-0.003-14.038,0-21.056,0.001
		c-2.494,0-4.989,0.005-7.483-0.002c-2.591-0.007-4.241,1.65-4.24,4.233c0.005,11.871,0.001,23.743,0.001,35.615
		c-0.001,4.66-0.001,9.32,0.002,13.979C2.491,56.625,2.518,56.837,2.536,57.102"/>
</g>
</svg>
