<?xml version="1.0" encoding="utf-8"?>
<!-- Generator: Adobe Illustrator 16.0.0, SVG Export Plug-In . SVG Version: 6.00 Build 0)  -->
<!DOCTYPE svg PUBLIC "-//W3C//DTD SVG 1.1//EN" "http://www.w3.org/Graphics/SVG/1.1/DTD/svg11.dtd">
<svg version="1.1" id="Layer_1" xmlns="http://www.w3.org/2000/svg" xmlns:xlink="http://www.w3.org/1999/xlink" x="0px" y="0px"
	 width="69.091px" height="42.714px" viewBox="0 0 69.091 42.714" enable-background="new 0 0 69.091 42.714" xml:space="preserve">
<g>
	<defs>
		<rect id="SVGID_1_" width="69.091" height="42.714"/>
	</defs>
	<clipPath id="SVGID_2_">
		<use xlink:href="#SVGID_1_"  overflow="visible"/>
	</clipPath>
	<path clip-path="url(#SVGID_2_)" fill-rule="evenodd" clip-rule="evenodd" fill="#150D47" d="M24.759,37.361
		c-0.557-0.379-1.094-0.664-1.524-1.064c-0.275-0.258-0.395-0.684-0.582-1.034c-0.219-0.408-0.383-0.856-0.663-1.214
		c-0.406-0.513-0.876-0.98-1.357-1.426c-0.229-0.214-0.529-0.405-0.829-0.478c-0.533-0.127-1.09-0.156-1.685-0.231
		c-0.05,0.226-0.1,0.449-0.169,0.761c-1.789-0.393-3.684-0.195-5.307-1.32c-0.941-0.651-2.098-1.031-2.935-1.781
		c-1.01-0.905-2.177-0.864-3.336-0.99c-0.483-0.054-0.61-0.239-0.599-0.653c0.02-0.798-0.494-1.243-0.981-1.802
		c-0.365-0.419-0.888-0.604-1.202-1.079c-0.198-0.301-0.656-0.47-1.032-0.604C2.1,24.281,1.855,24.139,2.05,23.563
		c0.104-0.311-0.016-0.744-0.148-1.077c-0.216-0.547-0.533-1.053-0.785-1.588c-0.06-0.126-0.098-0.373-0.032-0.43
		c0.516-0.44,0.227-0.679-0.142-1.017c-0.151-0.138-0.056-0.53-0.101-0.802c-0.051-0.303-0.133-0.601-0.203-0.9
		c-0.003-0.008-0.061-0.009-0.061-0.009c0.1-0.974-0.947-1.758-0.432-2.832c0.127-0.266-0.128-0.696-0.138-1.052
		C0,13.513-0.035,13.083,0.144,12.84c0.415-0.57,0.744-1.13,0.642-1.856C0.602,9.671,1.36,8.683,1.882,7.591
		C2.759,5.76,3.467,3.863,3.417,1.779C3.406,1.32,3.377,0.862,3.355,0.362c0.75,0.372,1.387,0.655,1.986,1.004
		c0.205,0.119,0.311,0.405,0.494,0.657V0c9.868,2.739,19.887,4.105,30.109,4.093c0.075-0.227,0.142-0.432,0.259-0.786
		c0.186,0.265,0.36,0.423,0.419,0.616c0.188,0.614,0.715,0.979,1.362,0.816c0.438-0.11,0.721,0.048,1.117,0.209
		c0.483,0.197,0.934,0.766,1.696,0.365c0.429-0.226,1.135,0.077,1.76,0.146c-0.945,0.726-1.86,1.43-2.775,2.133
		c0.043,0.072,0.085,0.143,0.128,0.215c0.379-0.168,0.757-0.336,1.137-0.503c0.357,0.63,0.568,0.675,1.159,0.264
		c0.587-0.408,1.171-0.822,1.773-1.207c0.159-0.101,0.379-0.107,0.734-0.199c-0.295,0.392-0.473,0.63-0.574,0.766
		c1.196,1.376,2.44,0.473,3.694,0.086c0.067,0.197,0.121,0.351,0.175,0.507c0.028-0.044,0.059-0.088,0.088-0.131
		c0.542,0.238,1.084,0.476,1.626,0.713c0.013,0.049,0.024,0.099,0.038,0.149c-0.43,0.071-0.857,0.142-1.286,0.214
		c-0.011,0.046-0.021,0.092-0.032,0.138c0.298,0.137,0.586,0.301,0.895,0.404c0.872,0.295,1.246,1.304,0.784,2.139
		c-0.147,0.267-0.265,0.55-0.396,0.826c0.074,0.043,0.146,0.085,0.221,0.128c0.156-0.191,0.315-0.38,0.47-0.573
		c0.313-0.387,0.646-0.351,0.804,0.082c0.207,0.57,0.306,1.179,0.433,1.777c0.018,0.086-0.05,0.201-0.101,0.289
		c-0.261,0.456-0.528,0.906-0.79,1.353c1.047,0.663,1.52,0.596,2.408-0.129c0.696-0.569,1.463-1.05,2.172-1.604
		c0.355-0.279,0.754-0.591,0.322-1.144c-0.055-0.071,0.099-0.425,0.235-0.496c0.263-0.139,0.59-0.251,0.879-0.23
		c0.8,0.058,1.49-0.091,2.026-0.833c-0.096-0.187-0.218-0.429-0.32-0.632C58.692,9.59,58.871,9.219,59.1,8.88
		c0.359-0.535,0.761-0.983,1.489-1.089c0.801-0.117,1.58-0.379,2.367-0.587c1.099-0.29,1.671-1.204,1.699-2.35
		c0.021-0.826,0.265-1.646,0.428-2.575c0.329,0.174,0.488,0.259,0.646,0.343c0.863-0.544,1.231-0.398,1.55,0.608
		c0.099,0.315,0.144,0.67,0.322,0.932c0.292,0.427,0.689,0.778,1.011,1.187c0.19,0.244,0.317,0.536,0.479,0.816
		c-0.626,0.459-1.198,0.83-1.714,1.269c-0.381,0.324-0.647,0.782-1.033,1.097c-0.749,0.61-0.784,1.416-0.737,2.262
		c0.006,0.106,0.083,0.206,0.109,0.312c0.105,0.419,1.145,0.68,0.205,1.278c-0.435,0.275-0.839,0.597-1.255,0.899
		c-0.033,0.024-0.063,0.055-0.123,0.108c0.085,0.112,0.172,0.226,0.322,0.424c-0.638,0.453-1.272,0.904-1.999,1.419
		c0.394,0.875-0.013,1.684-0.599,2.478c-0.164,0.222-0.28,0.633-0.187,0.864c0.299,0.738-0.017,1.078-0.669,1.285
		c-0.187-0.163-0.385-0.336-0.741-0.648c0.13,0.809,0.225,1.411,0.324,2.01c0.006,0.039,0.041,0.1,0.072,0.108
		c0.769,0.162,0.607,0.945,0.958,1.4c-0.132,0.063-0.246,0.115-0.463,0.218c0.282,0.096,0.473,0.16,0.688,0.234
		c0.175,0.702-0.273,0.971-0.882,1.173c0.14,0.187,0.262,0.349,0.455,0.605c-0.18,0.139-0.388,0.269-0.558,0.437
		c-0.404,0.399-0.789,0.817-1.186,1.227c-0.185,0.189-0.367,0.384-0.564,0.562c-0.295,0.265-0.797,0.475-0.863,0.783
		c-0.186,0.846-0.822,1.285-1.368,1.793c-0.862,0.802-1.743,2.873-0.968,4.248c0.41,0.727,0.69,1.51,1.318,2.107
		c0.181,0.172,0.171,0.528,0.288,0.781c0.238,0.516,0.441,1.064,0.773,1.517c0.603,0.821,0.523,1.671,0.448,2.619
		c-0.057,0.729-0.344,0.971-0.929,1.079c-0.115,0.021-0.318-0.066-0.375-0.167c-0.236-0.398-0.419-0.779-0.955-0.933
		c-0.252-0.072-0.385-0.527-0.595-0.789c-0.37-0.462-0.819-0.873-1.127-1.374c-0.33-0.541-0.774-1.057-0.484-1.837
		c0.142-0.381,0.046-0.888-0.584-1.07c-0.316-0.09-0.527-0.503-0.814-0.736c-0.405-0.328-0.761-0.773-1.36-0.17
		c-0.326,0.327-0.864,0.444-1.25,0.63c-0.192-0.286-0.269-0.533-0.43-0.616c-0.607-0.317-1.22-0.588-1.966-0.408
		c-0.488,0.119-0.91,0.508-1.575,0.113c-0.382-0.228-1.154,0.207-1.81,0.357c0.607,0.563-0.101,0.797-0.317,1.239
		c0.29,0.181,0.57,0.356,0.918,0.573c-0.205,0.154-0.353,0.265-0.432,0.324c-0.342-0.221-0.634-0.407-0.958-0.614
		c-0.122,0.196-0.216,0.349-0.216,0.349c-1.222,0.429-1.926-0.387-2.753-0.867c0.002,0.071,0.003,0.144,0.005,0.216
		c-0.33,0.055-0.703,0.234-0.983,0.141c-0.875-0.295-1.668-0.06-2.515,0.12c-0.612,0.131-0.878,0.481-1.229,0.901
		c-0.263,0.313-0.717,0.509-1.123,0.655c-1.294,0.466-2.088,1.357-2.208,2.716c-0.048,0.558,0.202,1.141,0.344,1.849
		c-0.167-0.012-0.408,0.008-0.625-0.055c-0.455-0.131-0.891-0.324-1.345-0.457c-1.037-0.307-1.337-1.131-1.502-2.065
		c-0.025-0.14-0.099-0.278-0.176-0.4c-0.406-0.639-0.81-1.28-1.235-1.907c-0.358-0.528-0.676-1.114-1.141-1.529
		c-0.287-0.257-0.814-0.315-1.238-0.328c-0.442-0.014-0.695,0.31-0.852,0.743C25.226,36.956,24.963,37.133,24.759,37.361"/>
</g>
</svg>
